<?xml version="1.0" encoding="UTF-8" standalone="no"?>
<!DOCTYPE svg PUBLIC "-//W3C//DTD SVG 1.1//EN"
 "http://www.w3.org/Graphics/SVG/1.1/DTD/svg11.dtd">
<!-- Generated by graphviz version 2.43.0 (0)
 -->
<!-- Title: include/ccf/actors.h Pages: 1 -->
<!--zoomable 577 -->
<svg id="main" version="1.1" xmlns="http://www.w3.org/2000/svg" xmlns:xlink="http://www.w3.org/1999/xlink" xml:space="preserve" onload="init(evt)">
<style type="text/css"><![CDATA[
.edge:hover path { stroke: red; }
.edge:hover polygon { stroke: red; fill: red; }
]]></style>
<script type="text/javascript"><![CDATA[
var edges = document.getElementsByTagName('g');
if (edges && edges.length) {
  for (var i=0;i<edges.length;i++) {
    if (edges[i].id.substr(0,4)=='edge') {
      edges[i].setAttribute('class','edge');
    }
  }
}
]]></script>
        <defs>
                <circle id="rim" cx="0" cy="0" r="7"/>
                <circle id="rim2" cx="0" cy="0" r="3.5"/>
                <g id="zoomPlus">
                        <use xlink:href="#rim" fill="#404040">
                                <set attributeName="fill" to="#808080" begin="zoomplus.mouseover" end="zoomplus.mouseout"/>
                        </use>
                        <path d="M-4,0h8M0,-4v8" fill="none" stroke="white" stroke-width="1.5" pointer-events="none"/>
                </g>
                <g id="zoomMin">
                        <use xlink:href="#rim" fill="#404040">
                                <set attributeName="fill" to="#808080" begin="zoomminus.mouseover" end="zoomminus.mouseout"/>
                        </use>
                        <path d="M-4,0h8" fill="none" stroke="white" stroke-width="1.5" pointer-events="none"/>
                </g>
                <g id="dirArrow">
                        <path fill="none" stroke="white" stroke-width="1.5" d="M0,-3.0v7 M-2.5,-0.5L0,-3.0L2.5,-0.5"/>
                </g>
               <g id="resetDef">
                       <use xlink:href="#rim2" fill="#404040">
                               <set attributeName="fill" to="#808080" begin="reset.mouseover" end="reset.mouseout"/>
                       </use>
               </g>
        </defs>

<script type="text/javascript">
var viewWidth = 2478;
var viewHeight = 577;
var sectionId = 'dynsection-1';
</script>
<script xlink:href="svgpan.js"/>
<svg id="graph" class="graph">
<g id="viewport">
<title>include/ccf/actors.h</title>
<!-- Node1 -->
<g id="node1" class="node">
<title>Node1</title>
<g id="a_node1"><a xlink:title=" ">
<polygon fill="#999999" stroke="#666666" points="2052,-569 1941,-569 1941,-550 2052,-550 2052,-569"/>
<text text-anchor="middle" x="1996.5" y="-557" font-family="Helvetica,sans-Serif" font-size="10.00">include/ccf/actors.h</text>
</a>
</g>
</g>
<!-- Node2 -->
<g id="node2" class="node">
<title>Node2</title>
<g id="a_node2"><a xlink:href="app__interface_8h.html" target="_top" xlink:title=" ">
<polygon fill="white" stroke="#666666" points="814.5,-398.5 666.5,-398.5 666.5,-379.5 814.5,-379.5 814.5,-398.5"/>
<text text-anchor="middle" x="740.5" y="-386.5" font-family="Helvetica,sans-Serif" font-size="10.00">include/ccf/app_interface.h</text>
</a>
</g>
</g>
<!-- Node1&#45;&gt;Node2 -->
<g id="edge1" class="edge">
<title>Node1&#45;&gt;Node2</title>
<path fill="none" stroke="#63b8ff" d="M1930.67,-549.87C1800.01,-532.72 1498.68,-493.07 1245.5,-459 1085.67,-437.49 897.47,-411.64 802.29,-398.53"/>
<polygon fill="#63b8ff" stroke="#63b8ff" points="1930.53,-553.38 1940.9,-551.21 1931.44,-546.44 1930.53,-553.38"/>
</g>
<!-- Node18 -->
<g id="node18" class="node">
<title>Node18</title>
<g id="a_node18"><a xlink:href="rpc__map_8h.html" target="_top" xlink:title=" ">
<polygon fill="white" stroke="#666666" points="1922.5,-514 1796.5,-514 1796.5,-495 1922.5,-495 1922.5,-514"/>
<text text-anchor="middle" x="1859.5" y="-502" font-family="Helvetica,sans-Serif" font-size="10.00">src/enclave/rpc_map.h</text>
</a>
</g>
</g>
<!-- Node1&#45;&gt;Node18 -->
<g id="edge21" class="edge">
<title>Node1&#45;&gt;Node18</title>
<path fill="none" stroke="#63b8ff" d="M1964.94,-546.29C1939.55,-536.47 1904.5,-522.91 1881.91,-514.17"/>
<polygon fill="#63b8ff" stroke="#63b8ff" points="1963.9,-549.64 1974.49,-549.98 1966.42,-543.11 1963.9,-549.64"/>
</g>
<!-- Node36 -->
<g id="node36" class="node">
<title>Node36</title>
<g id="a_node36"><a xlink:href="acme__challenge__frontend_8h.html" target="_top" xlink:title=" ">
<polygon fill="white" stroke="#666666" points="2436.5,-338 2296.5,-338 2296.5,-308 2436.5,-308 2436.5,-338"/>
<text text-anchor="start" x="2304.5" y="-326" font-family="Helvetica,sans-Serif" font-size="10.00">src/node/acme_challenge</text>
<text text-anchor="middle" x="2366.5" y="-315" font-family="Helvetica,sans-Serif" font-size="10.00">_frontend.h</text>
</a>
</g>
</g>
<!-- Node1&#45;&gt;Node36 -->
<g id="edge69" class="edge">
<title>Node1&#45;&gt;Node36</title>
<path fill="none" stroke="#63b8ff" d="M2062.31,-548.87C2124.88,-536.89 2218.79,-511.25 2283.5,-459 2325.03,-425.47 2351.28,-365.23 2361.56,-338.02"/>
<polygon fill="#63b8ff" stroke="#63b8ff" points="2061.36,-545.49 2052.16,-550.75 2062.63,-552.37 2061.36,-545.49"/>
</g>
<!-- Node38 -->
<g id="node38" class="node">
<title>Node38</title>
<g id="a_node38"><a xlink:href="http__rpc__context_8h.html" target="_top" xlink:title=" ">
<polygon fill="white" stroke="#666666" points="2118,-514 1971,-514 1971,-495 2118,-495 2118,-514"/>
<text text-anchor="middle" x="2044.5" y="-502" font-family="Helvetica,sans-Serif" font-size="10.00">src/http/http_rpc_context.h</text>
</a>
</g>
</g>
<!-- Node1&#45;&gt;Node38 -->
<g id="edge62" class="edge">
<title>Node1&#45;&gt;Node38</title>
<path fill="none" stroke="#63b8ff" d="M2011.23,-542.24C2019.64,-532.95 2029.85,-521.68 2036.72,-514.09"/>
<polygon fill="#63b8ff" stroke="#63b8ff" points="2008.54,-539.99 2004.43,-549.75 2013.73,-544.69 2008.54,-539.99"/>
</g>
<!-- Node3 -->
<g id="node3" class="node">
<title>Node3</title>
<g id="a_node3"><a xlink:href="logging_8cpp.html" target="_top" xlink:title=" ">
<polygon fill="white" stroke="#666666" points="942,-338 819,-338 819,-308 942,-308 942,-338"/>
<text text-anchor="start" x="827" y="-326" font-family="Helvetica,sans-Serif" font-size="10.00">samples/apps/logging</text>
<text text-anchor="middle" x="880.5" y="-315" font-family="Helvetica,sans-Serif" font-size="10.00">/logging.cpp</text>
</a>
</g>
</g>
<!-- Node2&#45;&gt;Node3 -->
<g id="edge2" class="edge">
<title>Node2&#45;&gt;Node3</title>
<path fill="none" stroke="#63b8ff" d="M768.77,-375.08C792.21,-364.36 825.49,-349.15 849.62,-338.12"/>
<polygon fill="#63b8ff" stroke="#63b8ff" points="767.02,-372.03 759.38,-379.37 769.93,-378.39 767.02,-372.03"/>
</g>
<!-- Node4 -->
<g id="node4" class="node">
<title>Node4</title>
<g id="a_node4"><a xlink:href="nobuiltins_8cpp.html" target="_top" xlink:title=" ">
<polygon fill="white" stroke="#666666" points="1095,-338 960,-338 960,-308 1095,-308 1095,-338"/>
<text text-anchor="start" x="968" y="-326" font-family="Helvetica,sans-Serif" font-size="10.00">samples/apps/nobuiltins</text>
<text text-anchor="middle" x="1027.5" y="-315" font-family="Helvetica,sans-Serif" font-size="10.00">/nobuiltins.cpp</text>
</a>
</g>
</g>
<!-- Node2&#45;&gt;Node4 -->
<g id="edge3" class="edge">
<title>Node2&#45;&gt;Node4</title>
<path fill="none" stroke="#63b8ff" d="M788.8,-377.23C837.13,-366.45 911.69,-349.83 964.61,-338.02"/>
<polygon fill="#63b8ff" stroke="#63b8ff" points="787.91,-373.84 778.91,-379.44 789.43,-380.67 787.91,-373.84"/>
</g>
<!-- Node5 -->
<g id="node5" class="node">
<title>Node5</title>
<g id="a_node5"><a xlink:href="executor__auth__policy_8h.html" target="_top" xlink:title=" ">
<polygon fill="white" stroke="#666666" points="258.5,-338 110.5,-338 110.5,-308 258.5,-308 258.5,-338"/>
<text text-anchor="start" x="118.5" y="-326" font-family="Helvetica,sans-Serif" font-size="10.00">src/apps/external_executor</text>
<text text-anchor="middle" x="184.5" y="-315" font-family="Helvetica,sans-Serif" font-size="10.00">/executor_auth_policy.h</text>
</a>
</g>
</g>
<!-- Node2&#45;&gt;Node5 -->
<g id="edge4" class="edge">
<title>Node2&#45;&gt;Node5</title>
<path fill="none" stroke="#63b8ff" d="M656.19,-380.31C562.37,-371.44 406.34,-355.78 272.5,-338 268.05,-337.41 263.48,-336.77 258.88,-336.11"/>
<polygon fill="#63b8ff" stroke="#63b8ff" points="655.91,-383.8 666.19,-381.25 656.57,-376.83 655.91,-383.8"/>
</g>
<!-- Node6 -->
<g id="node6" class="node">
<title>Node6</title>
<g id="a_node6"><a xlink:href="external__executor_8cpp.html" target="_top" xlink:title=" ">
<polygon fill="white" stroke="#666666" points="341.5,-206 193.5,-206 193.5,-176 341.5,-176 341.5,-206"/>
<text text-anchor="start" x="201.5" y="-194" font-family="Helvetica,sans-Serif" font-size="10.00">src/apps/external_executor</text>
<text text-anchor="middle" x="267.5" y="-183" font-family="Helvetica,sans-Serif" font-size="10.00">/external_executor.cpp</text>
</a>
</g>
</g>
<!-- Node2&#45;&gt;Node6 -->
<g id="edge9" class="edge">
<title>Node2&#45;&gt;Node6</title>
<path fill="none" stroke="#63b8ff" d="M656.05,-383.39C537,-376.13 331.39,-360.5 305.5,-338 266.55,-304.16 265.04,-235.94 266.42,-206.3"/>
<polygon fill="#63b8ff" stroke="#63b8ff" points="656.03,-386.89 666.23,-384 656.46,-379.91 656.03,-386.89"/>
</g>
<!-- Node9 -->
<g id="node9" class="node">
<title>Node9</title>
<g id="a_node9"><a xlink:href="js__generic_8cpp.html" target="_top" xlink:title=" ">
<polygon fill="white" stroke="#666666" points="466.5,-272 356.5,-272 356.5,-242 466.5,-242 466.5,-272"/>
<text text-anchor="start" x="364.5" y="-260" font-family="Helvetica,sans-Serif" font-size="10.00">src/apps/js_generic</text>
<text text-anchor="middle" x="411.5" y="-249" font-family="Helvetica,sans-Serif" font-size="10.00">/js_generic.cpp</text>
</a>
</g>
</g>
<!-- Node2&#45;&gt;Node9 -->
<g id="edge10" class="edge">
<title>Node2&#45;&gt;Node9</title>
<path fill="none" stroke="#63b8ff" d="M656.28,-379.09C589.25,-370.78 501.83,-356.82 471.5,-338 445.69,-321.98 427.13,-290.48 417.97,-272.15"/>
<polygon fill="#63b8ff" stroke="#63b8ff" points="656.09,-382.59 666.44,-380.33 656.93,-375.65 656.09,-382.59"/>
</g>
<!-- Node10 -->
<g id="node10" class="node">
<title>Node10</title>
<g id="a_node10"><a xlink:href="js__generic__base_8cpp.html" target="_top" xlink:title=" ">
<polygon fill="white" stroke="#666666" points="598.5,-338 480.5,-338 480.5,-308 598.5,-308 598.5,-338"/>
<text text-anchor="start" x="488.5" y="-326" font-family="Helvetica,sans-Serif" font-size="10.00">src/apps/js_generic</text>
<text text-anchor="middle" x="539.5" y="-315" font-family="Helvetica,sans-Serif" font-size="10.00">/js_generic_base.cpp</text>
</a>
</g>
</g>
<!-- Node2&#45;&gt;Node10 -->
<g id="edge11" class="edge">
<title>Node2&#45;&gt;Node10</title>
<path fill="none" stroke="#63b8ff" d="M703.46,-376.21C669.69,-365.45 619.72,-349.54 583.83,-338.12"/>
<polygon fill="#63b8ff" stroke="#63b8ff" points="702.8,-379.67 713.39,-379.37 704.93,-373 702.8,-379.67"/>
</g>
<!-- Node11 -->
<g id="node11" class="node">
<title>Node11</title>
<g id="a_node11"><a xlink:href="js__generic__base_8h.html" target="_top" xlink:title=" ">
<polygon fill="white" stroke="#666666" points="424.5,-338 314.5,-338 314.5,-308 424.5,-308 424.5,-338"/>
<text text-anchor="start" x="322.5" y="-326" font-family="Helvetica,sans-Serif" font-size="10.00">src/apps/js_generic</text>
<text text-anchor="middle" x="369.5" y="-315" font-family="Helvetica,sans-Serif" font-size="10.00">/js_generic_base.h</text>
</a>
</g>
</g>
<!-- Node2&#45;&gt;Node11 -->
<g id="edge12" class="edge">
<title>Node2&#45;&gt;Node11</title>
<path fill="none" stroke="#63b8ff" d="M675.37,-377.91C614.13,-368.26 519.94,-353 438.5,-338 434.05,-337.18 429.45,-336.31 424.83,-335.41"/>
<polygon fill="#63b8ff" stroke="#63b8ff" points="674.87,-381.38 685.29,-379.47 675.95,-374.46 674.87,-381.38"/>
</g>
<!-- Node12 -->
<g id="node12" class="node">
<title>Node12</title>
<g id="a_node12"><a xlink:href="tpcc_8cpp.html" target="_top" xlink:title=" ">
<polygon fill="white" stroke="#666666" points="762,-332.5 617,-332.5 617,-313.5 762,-313.5 762,-332.5"/>
<text text-anchor="middle" x="689.5" y="-320.5" font-family="Helvetica,sans-Serif" font-size="10.00">src/apps/tpcc/app/tpcc.cpp</text>
</a>
</g>
</g>
<!-- Node2&#45;&gt;Node12 -->
<g id="edge14" class="edge">
<title>Node2&#45;&gt;Node12</title>
<path fill="none" stroke="#63b8ff" d="M727.17,-371.27C717.38,-358.99 704.48,-342.8 696.6,-332.91"/>
<polygon fill="#63b8ff" stroke="#63b8ff" points="724.65,-373.73 733.62,-379.37 730.13,-369.37 724.65,-373.73"/>
</g>
<!-- Node13 -->
<g id="node13" class="node">
<title>Node13</title>
<g id="a_node13"><a xlink:href="src_2enclave_2enclave_8h.html" target="_top" xlink:title=" ">
<polygon fill="white" stroke="#666666" points="1664.5,-74 1542.5,-74 1542.5,-55 1664.5,-55 1664.5,-74"/>
<text text-anchor="middle" x="1603.5" y="-62" font-family="Helvetica,sans-Serif" font-size="10.00">src/enclave/enclave.h</text>
</a>
</g>
</g>
<!-- Node2&#45;&gt;Node13 -->
<g id="edge15" class="edge">
<title>Node2&#45;&gt;Node13</title>
<path fill="none" stroke="#63b8ff" d="M752.52,-370.85C758.62,-361.5 765.74,-349.5 770.5,-338 784.53,-304.14 790.5,-294.65 790.5,-258 790.5,-258 790.5,-258 790.5,-190 790.5,-113.96 1353.32,-78.27 1542.39,-68.42"/>
<polygon fill="#63b8ff" stroke="#63b8ff" points="749.57,-368.96 746.88,-379.21 755.37,-372.88 749.57,-368.96"/>
</g>
<!-- Node15 -->
<g id="node15" class="node">
<title>Node15</title>
<g id="a_node15"><a xlink:href="no__plugins_8cpp.html" target="_top" xlink:title=" ">
<polygon fill="white" stroke="#666666" points="1231.5,-332.5 1113.5,-332.5 1113.5,-313.5 1231.5,-313.5 1231.5,-332.5"/>
<text text-anchor="middle" x="1172.5" y="-320.5" font-family="Helvetica,sans-Serif" font-size="10.00">src/js/no_plugins.cpp</text>
</a>
</g>
</g>
<!-- Node2&#45;&gt;Node15 -->
<g id="edge17" class="edge">
<title>Node2&#45;&gt;Node15</title>
<path fill="none" stroke="#63b8ff" d="M823.07,-378.25C897,-369.14 1008.28,-354.5 1104.5,-338 1113.89,-336.39 1123.95,-334.44 1133.39,-332.52"/>
<polygon fill="#63b8ff" stroke="#63b8ff" points="822.39,-374.81 812.89,-379.5 823.24,-381.75 822.39,-374.81"/>
</g>
<!-- Node17 -->
<g id="node17" class="node">
<title>Node17</title>
<g id="a_node17"><a xlink:href="user__frontend_8h.html" target="_top" xlink:title=" ">
<polygon fill="white" stroke="#666666" points="1443,-332.5 1288,-332.5 1288,-313.5 1443,-313.5 1443,-332.5"/>
<text text-anchor="middle" x="1365.5" y="-320.5" font-family="Helvetica,sans-Serif" font-size="10.00">src/node/rpc/user_frontend.h</text>
</a>
</g>
</g>
<!-- Node2&#45;&gt;Node17 -->
<g id="edge19" class="edge">
<title>Node2&#45;&gt;Node17</title>
<path fill="none" stroke="#63b8ff" d="M824.64,-379.89C924.03,-370.25 1094.35,-353.49 1240.5,-338 1256.79,-336.27 1274.26,-334.36 1290.82,-332.51"/>
<polygon fill="#63b8ff" stroke="#63b8ff" points="824.27,-376.41 814.65,-380.86 824.94,-383.38 824.27,-376.41"/>
</g>
<!-- Node5&#45;&gt;Node6 -->
<g id="edge5" class="edge">
<title>Node5&#45;&gt;Node6</title>
<path fill="none" stroke="#63b8ff" d="M206.45,-300.39C214.31,-291.98 222.85,-281.97 229.5,-272 243.83,-250.51 255.72,-222.77 262.2,-206.24"/>
<polygon fill="#63b8ff" stroke="#63b8ff" points="203.91,-297.99 199.5,-307.63 208.95,-302.84 203.91,-297.99"/>
</g>
<!-- Node7 -->
<g id="node7" class="node">
<title>Node7</title>
<g id="a_node7"><a xlink:href="external__executor__indexing_8h.html" target="_top" xlink:title=" ">
<polygon fill="white" stroke="#666666" points="220.5,-272 56.5,-272 56.5,-242 220.5,-242 220.5,-272"/>
<text text-anchor="start" x="64.5" y="-260" font-family="Helvetica,sans-Serif" font-size="10.00">src/apps/external_executor</text>
<text text-anchor="middle" x="138.5" y="-249" font-family="Helvetica,sans-Serif" font-size="10.00">/external_executor_indexing.h</text>
</a>
</g>
</g>
<!-- Node5&#45;&gt;Node7 -->
<g id="edge6" class="edge">
<title>Node5&#45;&gt;Node7</title>
<path fill="none" stroke="#63b8ff" d="M168.35,-299.53C161.81,-290.43 154.45,-280.19 148.68,-272.16"/>
<polygon fill="#63b8ff" stroke="#63b8ff" points="165.61,-301.72 174.29,-307.8 171.3,-297.63 165.61,-301.72"/>
</g>
<!-- Node7&#45;&gt;Node6 -->
<g id="edge7" class="edge">
<title>Node7&#45;&gt;Node6</title>
<path fill="none" stroke="#63b8ff" d="M176.04,-237.38C196.22,-227.36 220.7,-215.22 239.26,-206.01"/>
<polygon fill="#63b8ff" stroke="#63b8ff" points="174.21,-234.38 166.81,-241.95 177.32,-240.65 174.21,-234.38"/>
</g>
<!-- Node8 -->
<g id="node8" class="node">
<title>Node8</title>
<g id="a_node8"><a xlink:href="external__executor__indexing_8cpp.html" target="_top" xlink:title=" ">
<polygon fill="white" stroke="#666666" points="175,-206 0,-206 0,-176 175,-176 175,-206"/>
<text text-anchor="start" x="8" y="-194" font-family="Helvetica,sans-Serif" font-size="10.00">src/apps/external_executor</text>
<text text-anchor="middle" x="87.5" y="-183" font-family="Helvetica,sans-Serif" font-size="10.00">/external_executor_indexing.cpp</text>
</a>
</g>
</g>
<!-- Node7&#45;&gt;Node8 -->
<g id="edge8" class="edge">
<title>Node7&#45;&gt;Node8</title>
<path fill="none" stroke="#63b8ff" d="M120.82,-233.81C113.51,-224.64 105.25,-214.28 98.79,-206.16"/>
<polygon fill="#63b8ff" stroke="#63b8ff" points="118.21,-236.16 127.18,-241.8 123.69,-231.79 118.21,-236.16"/>
</g>
<!-- Node11&#45;&gt;Node9 -->
<g id="edge13" class="edge">
<title>Node11&#45;&gt;Node9</title>
<path fill="none" stroke="#63b8ff" d="M384.43,-299.24C390.36,-290.21 396.99,-280.11 402.2,-272.16"/>
<polygon fill="#63b8ff" stroke="#63b8ff" points="381.38,-297.52 378.82,-307.8 387.23,-301.36 381.38,-297.52"/>
</g>
<!-- Node14 -->
<g id="node14" class="node">
<title>Node14</title>
<g id="a_node14"><a xlink:href="enclave_2main_8cpp.html" target="_top" xlink:title=" ">
<polygon fill="white" stroke="#666666" points="1663.5,-19 1543.5,-19 1543.5,0 1663.5,0 1663.5,-19"/>
<text text-anchor="middle" x="1603.5" y="-7" font-family="Helvetica,sans-Serif" font-size="10.00">src/enclave/main.cpp</text>
</a>
</g>
</g>
<!-- Node13&#45;&gt;Node14 -->
<g id="edge16" class="edge">
<title>Node13&#45;&gt;Node14</title>
<path fill="none" stroke="#63b8ff" d="M1603.5,-44.66C1603.5,-35.93 1603.5,-25.99 1603.5,-19.09"/>
<polygon fill="#63b8ff" stroke="#63b8ff" points="1600,-44.75 1603.5,-54.75 1607,-44.75 1600,-44.75"/>
</g>
<!-- Node16 -->
<g id="node16" class="node">
<title>Node16</title>
<g id="a_node16"><a xlink:href="wrap_8cpp.html" target="_top" xlink:title=" ">
<polygon fill="white" stroke="#666666" points="1217,-266.5 1128,-266.5 1128,-247.5 1217,-247.5 1217,-266.5"/>
<text text-anchor="middle" x="1172.5" y="-254.5" font-family="Helvetica,sans-Serif" font-size="10.00">src/js/wrap.cpp</text>
</a>
</g>
</g>
<!-- Node15&#45;&gt;Node16 -->
<g id="edge18" class="edge">
<title>Node15&#45;&gt;Node16</title>
<path fill="none" stroke="#63b8ff" d="M1172.5,-303.08C1172.5,-291.13 1172.5,-276.22 1172.5,-266.91"/>
<polygon fill="#63b8ff" stroke="#63b8ff" points="1169,-303.37 1172.5,-313.37 1176,-303.37 1169,-303.37"/>
</g>
<!-- Node17&#45;&gt;Node13 -->
<g id="edge20" class="edge">
<title>Node17&#45;&gt;Node13</title>
<path fill="none" stroke="#63b8ff" d="M1368.26,-303.22C1375.32,-262.04 1397.85,-163.23 1457.5,-110 1480.83,-89.18 1513.67,-78.1 1542.3,-72.2"/>
<polygon fill="#63b8ff" stroke="#63b8ff" points="1364.79,-302.8 1366.67,-313.22 1371.7,-303.9 1364.79,-302.8"/>
</g>
<!-- Node18&#45;&gt;Node13 -->
<g id="edge22" class="edge">
<title>Node18&#45;&gt;Node13</title>
<path fill="none" stroke="#63b8ff" d="M1786.18,-497.22C1626.1,-482.51 1259.5,-443.04 1259.5,-390 1259.5,-390 1259.5,-390 1259.5,-190 1259.5,-129.66 1448.99,-90.31 1546.7,-74.03"/>
<polygon fill="#63b8ff" stroke="#63b8ff" points="1786.15,-500.73 1796.42,-498.15 1786.78,-493.76 1786.15,-500.73"/>
</g>
<!-- Node19 -->
<g id="node19" class="node">
<title>Node19</title>
<g id="a_node19"><a xlink:href="http2__session_8h.html" target="_top" xlink:title=" ">
<polygon fill="white" stroke="#666666" points="2304,-398.5 2171,-398.5 2171,-379.5 2304,-379.5 2304,-398.5"/>
<text text-anchor="middle" x="2237.5" y="-386.5" font-family="Helvetica,sans-Serif" font-size="10.00">src/http/http2_session.h</text>
</a>
</g>
</g>
<!-- Node18&#45;&gt;Node19 -->
<g id="edge23" class="edge">
<title>Node18&#45;&gt;Node19</title>
<path fill="none" stroke="#63b8ff" d="M1911.5,-492.89C1949.48,-484.73 2002.07,-472.58 2047.5,-459 2109.87,-440.36 2181.62,-412.5 2216.4,-398.58"/>
<polygon fill="#63b8ff" stroke="#63b8ff" points="1910.74,-489.47 1901.68,-494.98 1912.19,-496.32 1910.74,-489.47"/>
</g>
<!-- Node26 -->
<g id="node26" class="node">
<title>Node26</title>
<g id="a_node26"><a xlink:href="http__session_8h.html" target="_top" xlink:title=" ">
<polygon fill="white" stroke="#666666" points="2038,-459 1911,-459 1911,-440 2038,-440 2038,-459"/>
<text text-anchor="middle" x="1974.5" y="-447" font-family="Helvetica,sans-Serif" font-size="10.00">src/http/http_session.h</text>
</a>
</g>
</g>
<!-- Node18&#45;&gt;Node26 -->
<g id="edge36" class="edge">
<title>Node18&#45;&gt;Node26</title>
<path fill="none" stroke="#63b8ff" d="M1887.13,-490.77C1908.34,-480.99 1937.06,-467.75 1955.69,-459.17"/>
<polygon fill="#63b8ff" stroke="#63b8ff" points="1885.59,-487.62 1877.98,-494.98 1888.52,-493.98 1885.59,-487.62"/>
</g>
<!-- Node27 -->
<g id="node27" class="node">
<title>Node27</title>
<g id="a_node27"><a xlink:href="node__client_8h.html" target="_top" xlink:title=" ">
<polygon fill="white" stroke="#666666" points="1892.5,-459 1766.5,-459 1766.5,-440 1892.5,-440 1892.5,-459"/>
<text text-anchor="middle" x="1829.5" y="-447" font-family="Helvetica,sans-Serif" font-size="10.00">src/node/node_client.h</text>
</a>
</g>
</g>
<!-- Node18&#45;&gt;Node27 -->
<g id="edge38" class="edge">
<title>Node18&#45;&gt;Node27</title>
<path fill="none" stroke="#63b8ff" d="M1849.49,-485.82C1844.4,-476.82 1838.44,-466.29 1834.36,-459.09"/>
<polygon fill="#63b8ff" stroke="#63b8ff" points="1846.57,-487.77 1854.55,-494.75 1852.67,-484.32 1846.57,-487.77"/>
</g>
<!-- Node34 -->
<g id="node34" class="node">
<title>Node34</title>
<g id="a_node34"><a xlink:href="forwarder_8h.html" target="_top" xlink:title=" ">
<polygon fill="white" stroke="#666666" points="1689.5,-459 1555.5,-459 1555.5,-440 1689.5,-440 1689.5,-459"/>
<text text-anchor="middle" x="1622.5" y="-447" font-family="Helvetica,sans-Serif" font-size="10.00">src/node/rpc/forwarder.h</text>
</a>
</g>
</g>
<!-- Node18&#45;&gt;Node34 -->
<g id="edge51" class="edge">
<title>Node18&#45;&gt;Node34</title>
<path fill="none" stroke="#63b8ff" d="M1811.44,-492.75C1767.03,-482.82 1701.9,-468.26 1660.88,-459.08"/>
<polygon fill="#63b8ff" stroke="#63b8ff" points="1810.9,-496.22 1821.42,-494.98 1812.43,-489.39 1810.9,-496.22"/>
</g>
<!-- Node20 -->
<g id="node20" class="node">
<title>Node20</title>
<g id="a_node20"><a xlink:href="rpc__sessions_8h.html" target="_top" xlink:title=" ">
<polygon fill="white" stroke="#666666" points="2278.5,-332.5 2132.5,-332.5 2132.5,-313.5 2278.5,-313.5 2278.5,-332.5"/>
<text text-anchor="middle" x="2205.5" y="-320.5" font-family="Helvetica,sans-Serif" font-size="10.00">src/enclave/rpc_sessions.h</text>
</a>
</g>
</g>
<!-- Node19&#45;&gt;Node20 -->
<g id="edge24" class="edge">
<title>Node19&#45;&gt;Node20</title>
<path fill="none" stroke="#63b8ff" d="M2228.59,-370.18C2222.53,-358.05 2214.75,-342.51 2209.95,-332.91"/>
<polygon fill="#63b8ff" stroke="#63b8ff" points="2225.58,-371.99 2233.18,-379.37 2231.84,-368.86 2225.58,-371.99"/>
</g>
<!-- Node20&#45;&gt;Node13 -->
<g id="edge25" class="edge">
<title>Node20&#45;&gt;Node13</title>
<path fill="none" stroke="#63b8ff" d="M2264.39,-311.69C2333.85,-299.26 2440.7,-279.13 2446.5,-272 2454.92,-261.66 2454.83,-252.41 2446.5,-242 2348.22,-119.08 1841.6,-78.97 1664.61,-68.6"/>
<polygon fill="#63b8ff" stroke="#63b8ff" points="2263.66,-308.27 2254.43,-313.47 2264.89,-315.16 2263.66,-308.27"/>
</g>
<!-- Node21 -->
<g id="node21" class="node">
<title>Node21</title>
<g id="a_node21"><a xlink:href="ccf__acme__client_8h.html" target="_top" xlink:title=" ">
<polygon fill="white" stroke="#666666" points="2437,-266.5 2288,-266.5 2288,-247.5 2437,-247.5 2437,-266.5"/>
<text text-anchor="middle" x="2362.5" y="-254.5" font-family="Helvetica,sans-Serif" font-size="10.00">src/node/ccf_acme_client.h</text>
</a>
</g>
</g>
<!-- Node20&#45;&gt;Node21 -->
<g id="edge26" class="edge">
<title>Node20&#45;&gt;Node21</title>
<path fill="none" stroke="#63b8ff" d="M2236.14,-309.51C2267.17,-296.86 2314.34,-277.63 2341.41,-266.6"/>
<polygon fill="#63b8ff" stroke="#63b8ff" points="2234.61,-306.35 2226.67,-313.37 2237.26,-312.83 2234.61,-306.35"/>
</g>
<!-- Node22 -->
<g id="node22" class="node">
<title>Node22</title>
<g id="a_node22"><a xlink:href="node__state_8h.html" target="_top" xlink:title=" ">
<polygon fill="white" stroke="#666666" points="1938.5,-200.5 1814.5,-200.5 1814.5,-181.5 1938.5,-181.5 1938.5,-200.5"/>
<text text-anchor="middle" x="1876.5" y="-188.5" font-family="Helvetica,sans-Serif" font-size="10.00">src/node/node_state.h</text>
</a>
</g>
</g>
<!-- Node20&#45;&gt;Node22 -->
<g id="edge31" class="edge">
<title>Node20&#45;&gt;Node22</title>
<path fill="none" stroke="#63b8ff" d="M2147.19,-311.71C2080.62,-299.69 1978.77,-280.39 1962.5,-272 1927.34,-253.87 1896.08,-217.28 1883,-200.61"/>
<polygon fill="#63b8ff" stroke="#63b8ff" points="2146.68,-315.17 2157.15,-313.5 2147.92,-308.28 2146.68,-315.17"/>
</g>
<!-- Node24 -->
<g id="node24" class="node">
<title>Node24</title>
<g id="a_node24"><a xlink:href="quote__endorsements__client_8h.html" target="_top" xlink:title=" ">
<polygon fill="white" stroke="#666666" points="2135.5,-272 1971.5,-272 1971.5,-242 2135.5,-242 2135.5,-272"/>
<text text-anchor="start" x="1979.5" y="-260" font-family="Helvetica,sans-Serif" font-size="10.00">src/node/quote_endorsements</text>
<text text-anchor="middle" x="2053.5" y="-249" font-family="Helvetica,sans-Serif" font-size="10.00">_client.h</text>
</a>
</g>
</g>
<!-- Node20&#45;&gt;Node24 -->
<g id="edge32" class="edge">
<title>Node20&#45;&gt;Node24</title>
<path fill="none" stroke="#63b8ff" d="M2175.49,-309.36C2150,-298.63 2113.46,-283.25 2087.02,-272.12"/>
<polygon fill="#63b8ff" stroke="#63b8ff" points="2174.43,-312.71 2185,-313.37 2177.14,-306.26 2174.43,-312.71"/>
</g>
<!-- Node25 -->
<g id="node25" class="node">
<title>Node25</title>
<g id="a_node25"><a xlink:href="resharing_8h.html" target="_top" xlink:title=" ">
<polygon fill="white" stroke="#666666" points="2269.5,-266.5 2153.5,-266.5 2153.5,-247.5 2269.5,-247.5 2269.5,-266.5"/>
<text text-anchor="middle" x="2211.5" y="-254.5" font-family="Helvetica,sans-Serif" font-size="10.00">src/node/resharing.h</text>
</a>
</g>
</g>
<!-- Node20&#45;&gt;Node25 -->
<g id="edge34" class="edge">
<title>Node20&#45;&gt;Node25</title>
<path fill="none" stroke="#63b8ff" d="M2207.27,-303.08C2208.39,-291.13 2209.79,-276.22 2210.67,-266.91"/>
<polygon fill="#63b8ff" stroke="#63b8ff" points="2203.76,-303.09 2206.31,-313.37 2210.73,-303.74 2203.76,-303.09"/>
</g>
<!-- Node21&#45;&gt;Node22 -->
<g id="edge27" class="edge">
<title>Node21&#45;&gt;Node22</title>
<path fill="none" stroke="#63b8ff" d="M2303.23,-245.81C2294.93,-244.47 2286.51,-243.16 2278.5,-242 2158.45,-224.54 2017.66,-207.91 1938.59,-198.91"/>
<polygon fill="#63b8ff" stroke="#63b8ff" points="2302.82,-249.29 2313.25,-247.44 2303.94,-242.38 2302.82,-249.29"/>
</g>
<!-- Node22&#45;&gt;Node13 -->
<g id="edge28" class="edge">
<title>Node22&#45;&gt;Node13</title>
<path fill="none" stroke="#63b8ff" d="M1872.34,-171.5C1867.17,-152.98 1856.48,-125.13 1836.5,-110 1810.03,-89.96 1724.46,-77.51 1664.75,-71.04"/>
<polygon fill="#63b8ff" stroke="#63b8ff" points="1868.99,-172.55 1874.82,-181.4 1875.78,-170.84 1868.99,-172.55"/>
</g>
<!-- Node23 -->
<g id="node23" class="node">
<title>Node23</title>
<g id="a_node23"><a xlink:href="gov__effects_8h.html" target="_top" xlink:title=" ">
<polygon fill="white" stroke="#666666" points="1827.5,-134.5 1683.5,-134.5 1683.5,-115.5 1827.5,-115.5 1827.5,-134.5"/>
<text text-anchor="middle" x="1755.5" y="-122.5" font-family="Helvetica,sans-Serif" font-size="10.00">src/node/rpc/gov_effects.h</text>
</a>
</g>
</g>
<!-- Node22&#45;&gt;Node23 -->
<g id="edge29" class="edge">
<title>Node22&#45;&gt;Node23</title>
<path fill="none" stroke="#63b8ff" d="M1851.03,-176.53C1827.2,-163.92 1792.3,-145.47 1771.95,-134.7"/>
<polygon fill="#63b8ff" stroke="#63b8ff" points="1849.71,-179.79 1860.18,-181.37 1852.98,-173.6 1849.71,-179.79"/>
</g>
<!-- Node23&#45;&gt;Node13 -->
<g id="edge30" class="edge">
<title>Node23&#45;&gt;Node13</title>
<path fill="none" stroke="#63b8ff" d="M1724,-111.88C1694.62,-100.57 1651.53,-83.99 1625.63,-74.02"/>
<polygon fill="#63b8ff" stroke="#63b8ff" points="1722.81,-115.17 1733.4,-115.49 1725.32,-108.64 1722.81,-115.17"/>
</g>
<!-- Node24&#45;&gt;Node22 -->
<g id="edge33" class="edge">
<title>Node24&#45;&gt;Node22</title>
<path fill="none" stroke="#63b8ff" d="M2004.88,-238.42C1970.78,-226.09 1926.69,-210.15 1900.06,-200.52"/>
<polygon fill="#63b8ff" stroke="#63b8ff" points="2004.06,-241.85 2014.66,-241.95 2006.44,-235.26 2004.06,-241.85"/>
</g>
<!-- Node25&#45;&gt;Node22 -->
<g id="edge35" class="edge">
<title>Node25&#45;&gt;Node22</title>
<path fill="none" stroke="#63b8ff" d="M2161.36,-245.4C2155.67,-244.23 2149.96,-243.08 2144.5,-242 2067.42,-226.76 1977.62,-210.26 1924,-200.54"/>
<polygon fill="#63b8ff" stroke="#63b8ff" points="2160.99,-248.9 2171.49,-247.49 2162.41,-242.04 2160.99,-248.9"/>
</g>
<!-- Node26&#45;&gt;Node20 -->
<g id="edge37" class="edge">
<title>Node26&#45;&gt;Node20</title>
<path fill="none" stroke="#63b8ff" d="M2009.99,-436.4C2032.2,-428.32 2061.13,-416.83 2085.5,-404 2127.82,-381.72 2173.79,-348.15 2194.4,-332.54"/>
<polygon fill="#63b8ff" stroke="#63b8ff" points="2008.53,-433.21 2000.3,-439.87 2010.89,-439.8 2008.53,-433.21"/>
</g>
<!-- Node28 -->
<g id="node28" class="node">
<title>Node28</title>
<g id="a_node28"><a xlink:href="orc__requests_8h.html" target="_top" xlink:title=" ">
<polygon fill="white" stroke="#666666" points="1764,-404 1645,-404 1645,-374 1764,-374 1764,-404"/>
<text text-anchor="start" x="1653" y="-392" font-family="Helvetica,sans-Serif" font-size="10.00">src/consensus/aft/orc</text>
<text text-anchor="middle" x="1704.5" y="-381" font-family="Helvetica,sans-Serif" font-size="10.00">_requests.h</text>
</a>
</g>
</g>
<!-- Node27&#45;&gt;Node28 -->
<g id="edge39" class="edge">
<title>Node27&#45;&gt;Node28</title>
<path fill="none" stroke="#63b8ff" d="M1802.18,-435.72C1782.29,-426.41 1755.35,-413.8 1734.79,-404.18"/>
<polygon fill="#63b8ff" stroke="#63b8ff" points="1800.78,-438.92 1811.32,-439.99 1803.75,-432.58 1800.78,-438.92"/>
</g>
<!-- Node29 -->
<g id="node29" class="node">
<title>Node29</title>
<g id="a_node29"><a xlink:href="raft_8h.html" target="_top" xlink:title=" ">
<polygon fill="white" stroke="#666666" points="1978,-332.5 1849,-332.5 1849,-313.5 1978,-313.5 1978,-332.5"/>
<text text-anchor="middle" x="1913.5" y="-320.5" font-family="Helvetica,sans-Serif" font-size="10.00">src/consensus/aft/raft.h</text>
</a>
</g>
</g>
<!-- Node27&#45;&gt;Node29 -->
<g id="edge46" class="edge">
<title>Node27&#45;&gt;Node29</title>
<path fill="none" stroke="#63b8ff" d="M1862.56,-435.68C1876.76,-428.49 1892.21,-418.09 1901.5,-404 1916.27,-381.61 1915.68,-348.1 1914.43,-332.52"/>
<polygon fill="#63b8ff" stroke="#63b8ff" points="1861.04,-432.53 1853.48,-439.95 1864.01,-438.86 1861.04,-432.53"/>
</g>
<!-- Node32 -->
<g id="node32" class="node">
<title>Node32</title>
<g id="a_node32"><a xlink:href="http__node__client_8h.html" target="_top" xlink:title=" ">
<polygon fill="white" stroke="#666666" points="1892.5,-404 1782.5,-404 1782.5,-374 1892.5,-374 1892.5,-404"/>
<text text-anchor="start" x="1790.5" y="-392" font-family="Helvetica,sans-Serif" font-size="10.00">src/node/http_node</text>
<text text-anchor="middle" x="1837.5" y="-381" font-family="Helvetica,sans-Serif" font-size="10.00">_client.h</text>
</a>
</g>
</g>
<!-- Node27&#45;&gt;Node32 -->
<g id="edge47" class="edge">
<title>Node27&#45;&gt;Node32</title>
<path fill="none" stroke="#63b8ff" d="M1832.04,-429.93C1833.18,-421.58 1834.51,-411.87 1835.57,-404.11"/>
<polygon fill="#63b8ff" stroke="#63b8ff" points="1828.57,-429.49 1830.68,-439.87 1835.5,-430.43 1828.57,-429.49"/>
</g>
<!-- Node33 -->
<g id="node33" class="node">
<title>Node33</title>
<g id="a_node33"><a xlink:href="retired__nodes__cleanup_8h.html" target="_top" xlink:title=" ">
<polygon fill="white" stroke="#666666" points="2076.5,-404 1948.5,-404 1948.5,-374 2076.5,-374 2076.5,-404"/>
<text text-anchor="start" x="1956.5" y="-392" font-family="Helvetica,sans-Serif" font-size="10.00">src/node/retired_nodes</text>
<text text-anchor="middle" x="2012.5" y="-381" font-family="Helvetica,sans-Serif" font-size="10.00">_cleanup.h</text>
</a>
</g>
</g>
<!-- Node27&#45;&gt;Node33 -->
<g id="edge49" class="edge">
<title>Node27&#45;&gt;Node33</title>
<path fill="none" stroke="#63b8ff" d="M1866,-436.83C1895.51,-427.4 1937.16,-414.09 1968.5,-404.06"/>
<polygon fill="#63b8ff" stroke="#63b8ff" points="1864.57,-433.61 1856.11,-439.99 1866.7,-440.28 1864.57,-433.61"/>
</g>
<!-- Node28&#45;&gt;Node29 -->
<g id="edge40" class="edge">
<title>Node28&#45;&gt;Node29</title>
<path fill="none" stroke="#63b8ff" d="M1760.11,-370.97C1800.61,-358.57 1853.77,-342.29 1885.69,-332.52"/>
<polygon fill="#63b8ff" stroke="#63b8ff" points="1758.9,-367.68 1750.37,-373.95 1760.95,-374.37 1758.9,-367.68"/>
</g>
<!-- Node30 -->
<g id="node30" class="node">
<title>Node30</title>
<g id="a_node30"><a xlink:href="node__frontend_8h.html" target="_top" xlink:title=" ">
<polygon fill="white" stroke="#666666" points="1783.5,-332.5 1625.5,-332.5 1625.5,-313.5 1783.5,-313.5 1783.5,-332.5"/>
<text text-anchor="middle" x="1704.5" y="-320.5" font-family="Helvetica,sans-Serif" font-size="10.00">src/node/rpc/node_frontend.h</text>
</a>
</g>
</g>
<!-- Node28&#45;&gt;Node30 -->
<g id="edge42" class="edge">
<title>Node28&#45;&gt;Node30</title>
<path fill="none" stroke="#63b8ff" d="M1704.5,-363.6C1704.5,-352.8 1704.5,-340.78 1704.5,-332.84"/>
<polygon fill="#63b8ff" stroke="#63b8ff" points="1701,-363.8 1704.5,-373.8 1708,-363.8 1701,-363.8"/>
</g>
<!-- Node29&#45;&gt;Node22 -->
<g id="edge41" class="edge">
<title>Node29&#45;&gt;Node22</title>
<path fill="none" stroke="#63b8ff" d="M1908.27,-303.61C1900.18,-275.19 1884.95,-221.69 1878.99,-200.73"/>
<polygon fill="#63b8ff" stroke="#63b8ff" points="1904.97,-304.81 1911.07,-313.47 1911.7,-302.89 1904.97,-304.81"/>
</g>
<!-- Node30&#45;&gt;Node13 -->
<g id="edge43" class="edge">
<title>Node30&#45;&gt;Node13</title>
<path fill="none" stroke="#63b8ff" d="M1698.97,-303.35C1687.63,-265.92 1660.12,-179.31 1628.5,-110 1622.61,-97.1 1614.32,-82.94 1608.93,-74.14"/>
<polygon fill="#63b8ff" stroke="#63b8ff" points="1695.74,-304.74 1701.96,-313.31 1702.44,-302.73 1695.74,-304.74"/>
</g>
<!-- Node31 -->
<g id="node31" class="node">
<title>Node31</title>
<g id="a_node31"><a xlink:href="jwt__key__auto__refresh_8h.html" target="_top" xlink:title=" ">
<polygon fill="white" stroke="#666666" points="1877,-272 1752,-272 1752,-242 1877,-242 1877,-272"/>
<text text-anchor="start" x="1760" y="-260" font-family="Helvetica,sans-Serif" font-size="10.00">src/node/jwt_key_auto</text>
<text text-anchor="middle" x="1814.5" y="-249" font-family="Helvetica,sans-Serif" font-size="10.00">_refresh.h</text>
</a>
</g>
</g>
<!-- Node30&#45;&gt;Node31 -->
<g id="edge44" class="edge">
<title>Node30&#45;&gt;Node31</title>
<path fill="none" stroke="#63b8ff" d="M1728.21,-308.21C1746.53,-297.55 1771.78,-282.85 1790.24,-272.12"/>
<polygon fill="#63b8ff" stroke="#63b8ff" points="1726.22,-305.31 1719.34,-313.37 1729.74,-311.36 1726.22,-305.31"/>
</g>
<!-- Node31&#45;&gt;Node22 -->
<g id="edge45" class="edge">
<title>Node31&#45;&gt;Node22</title>
<path fill="none" stroke="#63b8ff" d="M1835.23,-234.6C1846.38,-223.1 1859.52,-209.52 1867.93,-200.84"/>
<polygon fill="#63b8ff" stroke="#63b8ff" points="1832.7,-232.18 1828.26,-241.8 1837.73,-237.05 1832.7,-232.18"/>
</g>
<!-- Node32&#45;&gt;Node22 -->
<g id="edge48" class="edge">
<title>Node32&#45;&gt;Node22</title>
<path fill="none" stroke="#63b8ff" d="M1827.62,-364.65C1819.73,-347.74 1807.51,-324.95 1792.5,-308 1774.58,-287.77 1755.7,-296.11 1743.5,-272 1737.48,-260.1 1735.91,-252.96 1743.5,-242 1759.58,-218.78 1787.88,-206.33 1814.26,-199.66"/>
<polygon fill="#63b8ff" stroke="#63b8ff" points="1824.46,-366.16 1831.76,-373.85 1830.84,-363.29 1824.46,-366.16"/>
</g>
<!-- Node33&#45;&gt;Node29 -->
<g id="edge50" class="edge">
<title>Node33&#45;&gt;Node29</title>
<path fill="none" stroke="#63b8ff" d="M1982.12,-368.36C1963.65,-356.42 1940.99,-341.77 1926.89,-332.66"/>
<polygon fill="#63b8ff" stroke="#63b8ff" points="1980.23,-371.31 1990.53,-373.8 1984.03,-365.43 1980.23,-371.31"/>
</g>
<!-- Node34&#45;&gt;Node13 -->
<g id="edge52" class="edge">
<title>Node34&#45;&gt;Node13</title>
<path fill="none" stroke="#63b8ff" d="M1545.48,-438.26C1524.41,-431.75 1503.53,-421.17 1489.5,-404 1448.12,-353.38 1471.5,-323.38 1471.5,-258 1471.5,-258 1471.5,-258 1471.5,-190 1471.5,-153.46 1466.56,-137.61 1490.5,-110 1506.73,-91.28 1531.87,-80.37 1554.32,-74.05"/>
<polygon fill="#63b8ff" stroke="#63b8ff" points="1544.58,-441.64 1555.16,-440.98 1546.48,-434.91 1544.58,-441.64"/>
</g>
<!-- Node35 -->
<g id="node35" class="node">
<title>Node35</title>
<g id="a_node35"><a xlink:href="frontend_8h.html" target="_top" xlink:title=" ">
<polygon fill="white" stroke="#666666" points="1627,-398.5 1498,-398.5 1498,-379.5 1627,-379.5 1627,-398.5"/>
<text text-anchor="middle" x="1562.5" y="-386.5" font-family="Helvetica,sans-Serif" font-size="10.00">src/node/rpc/frontend.h</text>
</a>
</g>
</g>
<!-- Node34&#45;&gt;Node35 -->
<g id="edge53" class="edge">
<title>Node34&#45;&gt;Node35</title>
<path fill="none" stroke="#63b8ff" d="M1606.18,-432.59C1594.98,-421.67 1580.53,-407.58 1571.39,-398.67"/>
<polygon fill="#63b8ff" stroke="#63b8ff" points="1604.04,-435.39 1613.65,-439.87 1608.93,-430.38 1604.04,-435.39"/>
</g>
<!-- Node35&#45;&gt;Node17 -->
<g id="edge61" class="edge">
<title>Node35&#45;&gt;Node17</title>
<path fill="none" stroke="#63b8ff" d="M1526.06,-376.16C1487.18,-363.53 1426.52,-343.82 1391.96,-332.6"/>
<polygon fill="#63b8ff" stroke="#63b8ff" points="1525.34,-379.61 1535.93,-379.37 1527.5,-372.95 1525.34,-379.61"/>
</g>
<!-- Node35&#45;&gt;Node22 -->
<g id="edge57" class="edge">
<title>Node35&#45;&gt;Node22</title>
<path fill="none" stroke="#63b8ff" d="M1571.33,-370.25C1580.7,-352.78 1596.84,-326.15 1616.5,-308 1682.06,-247.49 1784.43,-214.64 1839.1,-200.53"/>
<polygon fill="#63b8ff" stroke="#63b8ff" points="1568.11,-368.85 1566.63,-379.34 1574.33,-372.07 1568.11,-368.85"/>
</g>
<!-- Node35&#45;&gt;Node30 -->
<g id="edge60" class="edge">
<title>Node35&#45;&gt;Node30</title>
<path fill="none" stroke="#63b8ff" d="M1590.91,-375.19C1618.9,-362.58 1660.88,-343.66 1685.2,-332.7"/>
<polygon fill="#63b8ff" stroke="#63b8ff" points="1589.33,-372.07 1581.65,-379.37 1592.21,-378.45 1589.33,-372.07"/>
</g>
<!-- Node35&#45;&gt;Node36 -->
<g id="edge54" class="edge">
<title>Node35&#45;&gt;Node36</title>
<path fill="none" stroke="#63b8ff" d="M1612.33,-377.65C1620.38,-376.24 1628.65,-374.96 1636.5,-374 1924.15,-338.99 1999.65,-371.34 2287.5,-338 2290.41,-337.66 2293.37,-337.29 2296.35,-336.88"/>
<polygon fill="#63b8ff" stroke="#63b8ff" points="1611.5,-374.24 1602.29,-379.48 1612.76,-381.13 1611.5,-374.24"/>
</g>
<!-- Node37 -->
<g id="node37" class="node">
<title>Node37</title>
<g id="a_node37"><a xlink:href="member__frontend_8h.html" target="_top" xlink:title=" ">
<polygon fill="white" stroke="#666666" points="1619.5,-140 1499.5,-140 1499.5,-110 1619.5,-110 1619.5,-140"/>
<text text-anchor="start" x="1507.5" y="-128" font-family="Helvetica,sans-Serif" font-size="10.00">src/node/rpc/member</text>
<text text-anchor="middle" x="1559.5" y="-117" font-family="Helvetica,sans-Serif" font-size="10.00">_frontend.h</text>
</a>
</g>
</g>
<!-- Node35&#45;&gt;Node37 -->
<g id="edge58" class="edge">
<title>Node35&#45;&gt;Node37</title>
<path fill="none" stroke="#63b8ff" d="M1562.29,-369.27C1561.71,-319.41 1560.17,-184.26 1559.66,-140.14"/>
<polygon fill="#63b8ff" stroke="#63b8ff" points="1558.79,-369.32 1562.4,-379.28 1565.79,-369.24 1558.79,-369.32"/>
</g>
<!-- Node36&#45;&gt;Node13 -->
<g id="edge55" class="edge">
<title>Node36&#45;&gt;Node13</title>
<path fill="none" stroke="#63b8ff" d="M2426.52,-303.68C2441.12,-296.25 2454.97,-286 2463.5,-272 2497.97,-215.46 2388.71,-177.72 2385.5,-176 2291.71,-125.87 2260.13,-129.03 2155.5,-110 1979.32,-77.95 1767.32,-68.98 1664.87,-66.47"/>
<polygon fill="#63b8ff" stroke="#63b8ff" points="2424.96,-300.55 2417.38,-307.95 2427.92,-306.89 2424.96,-300.55"/>
</g>
<!-- Node36&#45;&gt;Node21 -->
<g id="edge56" class="edge">
<title>Node36&#45;&gt;Node21</title>
<path fill="none" stroke="#63b8ff" d="M2364.98,-297.6C2364.3,-286.8 2363.55,-274.78 2363.05,-266.84"/>
<polygon fill="#63b8ff" stroke="#63b8ff" points="2361.5,-298.03 2365.61,-307.8 2368.48,-297.6 2361.5,-298.03"/>
</g>
<!-- Node37&#45;&gt;Node13 -->
<g id="edge59" class="edge">
<title>Node37&#45;&gt;Node13</title>
<path fill="none" stroke="#63b8ff" d="M1576.2,-101.8C1583.41,-92.21 1591.44,-81.54 1596.91,-74.27"/>
<polygon fill="#63b8ff" stroke="#63b8ff" points="1573.37,-99.74 1570.15,-109.84 1578.96,-103.95 1573.37,-99.74"/>
</g>
<!-- Node38&#45;&gt;Node19 -->
<g id="edge65" class="edge">
<title>Node38&#45;&gt;Node19</title>
<path fill="none" stroke="#63b8ff" d="M2128.42,-497.65C2184.02,-491.83 2249.85,-480.52 2267.5,-459 2282.74,-440.42 2260.58,-412.9 2246.9,-398.89"/>
<polygon fill="#63b8ff" stroke="#63b8ff" points="2127.77,-494.2 2118.17,-498.68 2128.47,-501.17 2127.77,-494.2"/>
</g>
<!-- Node38&#45;&gt;Node26 -->
<g id="edge66" class="edge">
<title>Node38&#45;&gt;Node26</title>
<path fill="none" stroke="#63b8ff" d="M2025.19,-488.88C2012.59,-479.34 1996.57,-467.21 1985.95,-459.17"/>
<polygon fill="#63b8ff" stroke="#63b8ff" points="2023.17,-491.74 2033.25,-494.98 2027.39,-486.16 2023.17,-491.74"/>
</g>
<!-- Node38&#45;&gt;Node31 -->
<g id="edge67" class="edge">
<title>Node38&#45;&gt;Node31</title>
<path fill="none" stroke="#63b8ff" d="M2057.95,-486.66C2076.53,-461.19 2105.63,-411.82 2085.5,-374 2060.83,-327.64 2035.08,-330.23 1987.5,-308 1952.38,-291.59 1910.69,-279.35 1877.04,-271.08"/>
<polygon fill="#63b8ff" stroke="#63b8ff" points="2054.95,-484.82 2051.69,-494.9 2060.52,-489.06 2054.95,-484.82"/>
</g>
<!-- Node38&#45;&gt;Node34 -->
<g id="edge68" class="edge">
<title>Node38&#45;&gt;Node34</title>
<path fill="none" stroke="#63b8ff" d="M1966.75,-493.73C1887.3,-483.76 1765.2,-468.42 1689.78,-458.95"/>
<polygon fill="#63b8ff" stroke="#63b8ff" points="1966.34,-497.21 1976.7,-494.98 1967.21,-490.27 1966.34,-497.21"/>
</g>
<!-- Node39 -->
<g id="node39" class="node">
<title>Node39</title>
<g id="a_node39"><a xlink:href="http2__parser_8h.html" target="_top" xlink:title=" ">
<polygon fill="white" stroke="#666666" points="2258.5,-459 2132.5,-459 2132.5,-440 2258.5,-440 2258.5,-459"/>
<text text-anchor="middle" x="2195.5" y="-447" font-family="Helvetica,sans-Serif" font-size="10.00">src/http/http2_parser.h</text>
</a>
</g>
</g>
<!-- Node38&#45;&gt;Node39 -->
<g id="edge63" class="edge">
<title>Node38&#45;&gt;Node39</title>
<path fill="none" stroke="#63b8ff" d="M2078.55,-491.55C2106.59,-481.71 2145.68,-467.98 2170.8,-459.17"/>
<polygon fill="#63b8ff" stroke="#63b8ff" points="2077.04,-488.37 2068.76,-494.98 2079.36,-494.98 2077.04,-488.37"/>
</g>
<!-- Node39&#45;&gt;Node19 -->
<g id="edge64" class="edge">
<title>Node39&#45;&gt;Node19</title>
<path fill="none" stroke="#63b8ff" d="M2207.61,-431.63C2215.35,-420.85 2225.06,-407.32 2231.28,-398.67"/>
<polygon fill="#63b8ff" stroke="#63b8ff" points="2204.69,-429.7 2201.7,-439.87 2210.37,-433.79 2204.69,-429.7"/>
</g>
</g>
</svg>
        <g id="navigator" transform="translate(0 0)" fill="#404254">
                <rect fill="#f2f5e9" fill-opacity="0.5" stroke="#606060" stroke-width=".5" x="0" y="0" width="60" height="60"/>
                <use id="zoomplus" xlink:href="#zoomPlus" x="17" y="9" onmousedown="handleZoom(evt,'in')"/>
                <use id="zoomminus" xlink:href="#zoomMin" x="42" y="9" onmousedown="handleZoom(evt,'out')"/>
                <use id="reset" xlink:href="#resetDef" x="30" y="36" onmousedown="handleReset()"/>
                <g id="arrowUp" xlink:href="#dirArrow" transform="translate(30 24)" onmousedown="handlePan(0,-1)">
                  <use xlink:href="#rim" fill="#404040">
                        <set attributeName="fill" to="#808080" begin="arrowUp.mouseover" end="arrowUp.mouseout"/>
                  </use>
                  <path fill="none" stroke="white" stroke-width="1.5" d="M0,-3.0v7 M-2.5,-0.5L0,-3.0L2.5,-0.5"/>
                </g>
                <g id="arrowRight" xlink:href="#dirArrow" transform="rotate(90) translate(36 -43)" onmousedown="handlePan(1,0)">
                  <use xlink:href="#rim" fill="#404040">
                        <set attributeName="fill" to="#808080" begin="arrowRight.mouseover" end="arrowRight.mouseout"/>
                  </use>
                  <path fill="none" stroke="white" stroke-width="1.5" d="M0,-3.0v7 M-2.5,-0.5L0,-3.0L2.5,-0.5"/>
                </g>
                <g id="arrowDown" xlink:href="#dirArrow" transform="rotate(180) translate(-30 -48)" onmousedown="handlePan(0,1)">
                  <use xlink:href="#rim" fill="#404040">
                        <set attributeName="fill" to="#808080" begin="arrowDown.mouseover" end="arrowDown.mouseout"/>
                  </use>
                  <path fill="none" stroke="white" stroke-width="1.5" d="M0,-3.0v7 M-2.5,-0.5L0,-3.0L2.5,-0.5"/>
                </g>
                <g id="arrowLeft" xlink:href="#dirArrow" transform="rotate(270) translate(-36 17)" onmousedown="handlePan(-1,0)">
                  <use xlink:href="#rim" fill="#404040">
                        <set attributeName="fill" to="#808080" begin="arrowLeft.mouseover" end="arrowLeft.mouseout"/>
                  </use>
                  <path fill="none" stroke="white" stroke-width="1.5" d="M0,-3.0v7 M-2.5,-0.5L0,-3.0L2.5,-0.5"/>
                </g>
        </g>
        <svg viewBox="0 0 15 15" width="100%" height="30px" preserveAspectRatio="xMaxYMin meet">
         <g id="arrow_out" transform="scale(0.3 0.3)">
          <a xlink:href="actors_8h__dep__incl_org.svg" target="_base">
           <rect id="button" ry="5" rx="5" y="6" x="6" height="38" width="38"
                fill="#f2f5e9" fill-opacity="0.5" stroke="#606060" stroke-width="1.0"/>
           <path id="arrow"
             d="M 11.500037,31.436501 C 11.940474,20.09759 22.043105,11.32322 32.158766,21.979434 L 37.068811,17.246167 C 37.068811,17.246167 37.088388,32 37.088388,32 L 22.160133,31.978069 C 22.160133,31.978069 26.997745,27.140456 26.997745,27.140456 C 18.528582,18.264221 13.291696,25.230495 11.500037,31.436501 z"
             style="fill:#404040;"/>
          </a>
         </g>
        </svg>
</svg>
