<?xml version="1.0" encoding="UTF-8" standalone="no"?>
<!DOCTYPE svg PUBLIC "-//W3C//DTD SVG 1.1//EN"
 "http://www.w3.org/Graphics/SVG/1.1/DTD/svg11.dtd">
<!-- Generated by graphviz version 2.43.0 (0)
 -->
<!-- Title: externalexecutor::ExecutorIndex Pages: 1 -->
<svg width="1170pt" height="285pt"
 viewBox="0.00 0.00 1170.00 284.50" xmlns="http://www.w3.org/2000/svg" xmlns:xlink="http://www.w3.org/1999/xlink">
<g id="graph0" class="graph" transform="scale(1 1) rotate(0) translate(4 280.5)">
<title>externalexecutor::ExecutorIndex</title>
<!-- Node1 -->
<g id="node1" class="node">
<title>Node1</title>
<g id="a_node1"><a xlink:title=" ">
<polygon fill="#999999" stroke="#666666" points="1162,-169 1015,-169 1015,-139 1162,-139 1162,-169"/>
<text text-anchor="start" x="1023" y="-157" font-family="Helvetica,sans-Serif" font-size="10.00">externalexecutor::Executor</text>
<text text-anchor="middle" x="1088.5" y="-146" font-family="Helvetica,sans-Serif" font-size="10.00">Index</text>
</a>
</g>
</g>
<!-- Node2 -->
<g id="node2" class="node">
<title>Node2</title>
<g id="a_node2"><a xlink:href="classccf_1_1indexing_1_1Strategy.html" target="_top" xlink:title=" ">
<polygon fill="white" stroke="#666666" points="880,-276.5 755,-276.5 755,-257.5 880,-257.5 880,-276.5"/>
<text text-anchor="middle" x="817.5" y="-264.5" font-family="Helvetica,sans-Serif" font-size="10.00">ccf::indexing::Strategy</text>
</a>
</g>
</g>
<!-- Node2&#45;&gt;Node1 -->
<g id="edge1" class="edge">
<title>Node2&#45;&gt;Node1</title>
<path fill="none" stroke="#63b8ff" d="M890.45,-263.73C924.18,-259.93 964.08,-252.07 997,-236 1029.96,-219.91 1059.7,-188.12 1075.52,-169.2"/>
<polygon fill="#63b8ff" stroke="#63b8ff" points="889.79,-260.28 880.2,-264.78 890.5,-267.24 889.79,-260.28"/>
</g>
<!-- Node3 -->
<g id="node3" class="node">
<title>Node3</title>
<g id="a_node3"><a xlink:title=" ">
<polygon fill="white" stroke="#666666" points="320,-213.5 255,-213.5 255,-194.5 320,-194.5 320,-213.5"/>
<text text-anchor="middle" x="287.5" y="-201.5" font-family="Helvetica,sans-Serif" font-size="10.00">std::string</text>
</a>
</g>
</g>
<!-- Node3&#45;&gt;Node1 -->
<g id="edge2" class="edge">
<title>Node3&#45;&gt;Node1</title>
<path fill="none" stroke="#9a32cd" stroke-dasharray="5,2" d="M330.33,-203.61C440.01,-202.22 744.88,-196.03 997,-169 1002.86,-168.37 1008.92,-167.61 1014.99,-166.77"/>
<polygon fill="#9a32cd" stroke="#9a32cd" points="329.98,-200.11 320.03,-203.73 330.07,-207.11 329.98,-200.11"/>
<text text-anchor="middle" x="671" y="-208" font-family="Helvetica,sans-Serif" font-size="10.00"> map_name</text>
<text text-anchor="middle" x="671" y="-197" font-family="Helvetica,sans-Serif" font-size="10.00">strategy_name</text>
</g>
<!-- Node13 -->
<g id="node13" class="node">
<title>Node13</title>
<g id="a_node13"><a xlink:title=" ">
<polygon fill="white" stroke="#666666" points="616,-261.5 450,-261.5 450,-220.5 616,-220.5 616,-261.5"/>
<text text-anchor="start" x="458" y="-249.5" font-family="Helvetica,sans-Serif" font-size="10.00">std::map&lt; std::string,</text>
<text text-anchor="start" x="458" y="-238.5" font-family="Helvetica,sans-Serif" font-size="10.00"> std::shared_ptr&lt; ccf</text>
<text text-anchor="middle" x="533" y="-227.5" font-family="Helvetica,sans-Serif" font-size="10.00">::AbstractNodeSubSystem &gt; &gt;</text>
</a>
</g>
</g>
<!-- Node3&#45;&gt;Node13 -->
<g id="edge13" class="edge">
<title>Node3&#45;&gt;Node13</title>
<path fill="none" stroke="#9a32cd" stroke-dasharray="5,2" d="M330.46,-210.38C363.23,-215.35 409.77,-222.43 449.87,-228.52"/>
<polygon fill="#9a32cd" stroke="#9a32cd" points="330.75,-206.88 320.33,-208.84 329.69,-213.8 330.75,-206.88"/>
<text text-anchor="middle" x="407.5" y="-227" font-family="Helvetica,sans-Serif" font-size="10.00"> keys</text>
</g>
<!-- Node4 -->
<g id="node4" class="node">
<title>Node4</title>
<g id="a_node4"><a xlink:title=" ">
<polygon fill="white" stroke="#666666" points="130.5,-219 26.5,-219 26.5,-189 130.5,-189 130.5,-219"/>
<text text-anchor="start" x="34.5" y="-207" font-family="Helvetica,sans-Serif" font-size="10.00">std::basic_string&lt;</text>
<text text-anchor="middle" x="78.5" y="-196" font-family="Helvetica,sans-Serif" font-size="10.00"> Char &gt;</text>
</a>
</g>
</g>
<!-- Node4&#45;&gt;Node3 -->
<g id="edge3" class="edge">
<title>Node4&#45;&gt;Node3</title>
<path fill="none" stroke="#63b8ff" d="M140.98,-204C178.43,-204 224.72,-204 254.89,-204"/>
<polygon fill="#63b8ff" stroke="#63b8ff" points="140.67,-200.5 130.67,-204 140.67,-207.5 140.67,-200.5"/>
</g>
<!-- Node5 -->
<g id="node5" class="node">
<title>Node5</title>
<g id="a_node5"><a xlink:href="structccf_1_1TxID.html" target="_top" xlink:title=" ">
<polygon fill="white" stroke="#666666" points="847,-163.5 788,-163.5 788,-144.5 847,-144.5 847,-163.5"/>
<text text-anchor="middle" x="817.5" y="-151.5" font-family="Helvetica,sans-Serif" font-size="10.00">ccf::TxID</text>
</a>
</g>
</g>
<!-- Node5&#45;&gt;Node1 -->
<g id="edge4" class="edge">
<title>Node5&#45;&gt;Node1</title>
<path fill="none" stroke="#9a32cd" stroke-dasharray="5,2" d="M857.17,-154C898.23,-154 964.1,-154 1014.9,-154"/>
<polygon fill="#9a32cd" stroke="#9a32cd" points="857.03,-150.5 847.03,-154 857.03,-157.5 857.03,-150.5"/>
<text text-anchor="middle" x="962" y="-157" font-family="Helvetica,sans-Serif" font-size="10.00"> current_txid</text>
</g>
<!-- Node6 -->
<g id="node6" class="node">
<title>Node6</title>
<g id="a_node6"><a xlink:href="structccf_1_1EntityId.html" target="_top" xlink:title=" ">
<polygon fill="white" stroke="#666666" points="885.5,-126 749.5,-126 749.5,-96 885.5,-96 885.5,-126"/>
<text text-anchor="start" x="757.5" y="-114" font-family="Helvetica,sans-Serif" font-size="10.00">ccf::EntityId&lt; ExecutorId</text>
<text text-anchor="middle" x="817.5" y="-103" font-family="Helvetica,sans-Serif" font-size="10.00">Formatter &gt;</text>
</a>
</g>
</g>
<!-- Node6&#45;&gt;Node1 -->
<g id="edge5" class="edge">
<title>Node6&#45;&gt;Node1</title>
<path fill="none" stroke="#9a32cd" stroke-dasharray="5,2" d="M895.9,-122.99C927.29,-127.89 963.89,-133.66 997,-139 1002.82,-139.94 1008.84,-140.92 1014.9,-141.91"/>
<polygon fill="#9a32cd" stroke="#9a32cd" points="896.33,-119.52 885.91,-121.43 895.25,-126.43 896.33,-119.52"/>
<text text-anchor="middle" x="962" y="-142" font-family="Helvetica,sans-Serif" font-size="10.00"> indexer_id</text>
</g>
<!-- Node7 -->
<g id="node7" class="node">
<title>Node7</title>
<g id="a_node7"><a xlink:href="structccf_1_1endpoints_1_1CommandEndpointContext.html" target="_top" xlink:title=" ">
<polygon fill="white" stroke="#666666" points="909,-78 726,-78 726,-48 909,-48 909,-78"/>
<text text-anchor="start" x="734" y="-66" font-family="Helvetica,sans-Serif" font-size="10.00">ccf::endpoints::CommandEndpoint</text>
<text text-anchor="middle" x="817.5" y="-55" font-family="Helvetica,sans-Serif" font-size="10.00">Context</text>
</a>
</g>
</g>
<!-- Node7&#45;&gt;Node1 -->
<g id="edge6" class="edge">
<title>Node7&#45;&gt;Node1</title>
<path fill="none" stroke="#9a32cd" stroke-dasharray="5,2" d="M886.21,-80.73C893.9,-82.81 901.63,-84.93 909,-87 948.27,-98.01 958.78,-98.77 997,-113 1017.37,-120.58 1039.61,-130.63 1056.95,-138.88"/>
<polygon fill="#9a32cd" stroke="#9a32cd" points="887.07,-77.34 876.5,-78.12 885.25,-84.1 887.07,-77.34"/>
<text text-anchor="middle" x="962" y="-116" font-family="Helvetica,sans-Serif" font-size="10.00"> endpoint_ctx</text>
</g>
<!-- Node8 -->
<g id="node8" class="node">
<title>Node8</title>
<g id="a_node8"><a xlink:title=" ">
<polygon fill="white" stroke="#666666" points="590.5,-123 475.5,-123 475.5,-93 590.5,-93 590.5,-123"/>
<text text-anchor="start" x="483.5" y="-111" font-family="Helvetica,sans-Serif" font-size="10.00">std::shared_ptr&lt; ccf</text>
<text text-anchor="middle" x="533" y="-100" font-family="Helvetica,sans-Serif" font-size="10.00">::RpcContext &gt;</text>
</a>
</g>
</g>
<!-- Node8&#45;&gt;Node7 -->
<g id="edge7" class="edge">
<title>Node8&#45;&gt;Node7</title>
<path fill="none" stroke="#9a32cd" stroke-dasharray="5,2" d="M601.08,-97.31C638.38,-91.37 685.31,-83.9 725.84,-77.44"/>
<polygon fill="#9a32cd" stroke="#9a32cd" points="600.15,-93.92 590.83,-98.95 601.25,-100.83 600.15,-93.92"/>
<text text-anchor="middle" x="671" y="-93" font-family="Helvetica,sans-Serif" font-size="10.00"> rpc_ctx</text>
</g>
<!-- Node9 -->
<g id="node9" class="node">
<title>Node9</title>
<g id="a_node9"><a xlink:href="classccf_1_1RpcContext.html" target="_top" xlink:title="Describes the currently executing RPC.">
<polygon fill="white" stroke="#666666" points="333.5,-117.5 241.5,-117.5 241.5,-98.5 333.5,-98.5 333.5,-117.5"/>
<text text-anchor="middle" x="287.5" y="-105.5" font-family="Helvetica,sans-Serif" font-size="10.00">ccf::RpcContext</text>
</a>
</g>
</g>
<!-- Node9&#45;&gt;Node8 -->
<g id="edge8" class="edge">
<title>Node9&#45;&gt;Node8</title>
<path fill="none" stroke="#9a32cd" stroke-dasharray="5,2" d="M343.93,-108C383.26,-108 435.86,-108 475.44,-108"/>
<polygon fill="#9a32cd" stroke="#9a32cd" points="343.73,-104.5 333.73,-108 343.73,-111.5 343.73,-104.5"/>
<text text-anchor="middle" x="407.5" y="-111" font-family="Helvetica,sans-Serif" font-size="10.00"> ptr</text>
</g>
<!-- Node10 -->
<g id="node10" class="node">
<title>Node10</title>
<g id="a_node10"><a xlink:title=" ">
<polygon fill="white" stroke="#666666" points="590.5,-75 475.5,-75 475.5,-45 590.5,-45 590.5,-75"/>
<text text-anchor="start" x="483.5" y="-63" font-family="Helvetica,sans-Serif" font-size="10.00">std::unique_ptr&lt; ccf</text>
<text text-anchor="middle" x="533" y="-52" font-family="Helvetica,sans-Serif" font-size="10.00">::AuthnIdentity &gt;</text>
</a>
</g>
</g>
<!-- Node10&#45;&gt;Node7 -->
<g id="edge9" class="edge">
<title>Node10&#45;&gt;Node7</title>
<path fill="none" stroke="#9a32cd" stroke-dasharray="5,2" d="M601.08,-60.71C638.38,-61.11 685.31,-61.61 725.84,-62.04"/>
<polygon fill="#9a32cd" stroke="#9a32cd" points="600.86,-57.21 590.83,-60.6 600.79,-64.21 600.86,-57.21"/>
<text text-anchor="middle" x="671" y="-64" font-family="Helvetica,sans-Serif" font-size="10.00"> caller</text>
</g>
<!-- Node11 -->
<g id="node11" class="node">
<title>Node11</title>
<g id="a_node11"><a xlink:href="structccf_1_1AuthnIdentity.html" target="_top" xlink:title=" ">
<polygon fill="white" stroke="#666666" points="338.5,-69.5 236.5,-69.5 236.5,-50.5 338.5,-50.5 338.5,-69.5"/>
<text text-anchor="middle" x="287.5" y="-57.5" font-family="Helvetica,sans-Serif" font-size="10.00">ccf::AuthnIdentity</text>
</a>
</g>
</g>
<!-- Node11&#45;&gt;Node10 -->
<g id="edge10" class="edge">
<title>Node11&#45;&gt;Node10</title>
<path fill="none" stroke="#9a32cd" stroke-dasharray="5,2" d="M348.72,-60C387.33,-60 437.14,-60 475.08,-60"/>
<polygon fill="#9a32cd" stroke="#9a32cd" points="348.66,-56.5 338.66,-60 348.66,-63.5 348.66,-56.5"/>
<text text-anchor="middle" x="407.5" y="-63" font-family="Helvetica,sans-Serif" font-size="10.00"> ptr</text>
</g>
<!-- Node12 -->
<g id="node12" class="node">
<title>Node12</title>
<g id="a_node12"><a xlink:href="structccfapp_1_1AbstractNodeContext.html" target="_top" xlink:title=" ">
<polygon fill="white" stroke="#666666" points="897,-239.5 738,-239.5 738,-220.5 897,-220.5 897,-239.5"/>
<text text-anchor="middle" x="817.5" y="-227.5" font-family="Helvetica,sans-Serif" font-size="10.00">ccfapp::AbstractNodeContext</text>
</a>
</g>
</g>
<!-- Node12&#45;&gt;Node1 -->
<g id="edge11" class="edge">
<title>Node12&#45;&gt;Node1</title>
<path fill="none" stroke="#9a32cd" stroke-dasharray="5,2" d="M907.48,-224.88C936.56,-221.41 968.66,-215.63 997,-206 1022.56,-197.31 1049.03,-181.12 1066.68,-169.11"/>
<polygon fill="#9a32cd" stroke="#9a32cd" points="906.87,-221.43 897.32,-226.01 907.65,-228.38 906.87,-221.43"/>
<text text-anchor="middle" x="962" y="-224" font-family="Helvetica,sans-Serif" font-size="10.00"> node_context</text>
</g>
<!-- Node13&#45;&gt;Node12 -->
<g id="edge12" class="edge">
<title>Node13&#45;&gt;Node12</title>
<path fill="none" stroke="#9a32cd" stroke-dasharray="5,2" d="M626.11,-237.41C662.11,-236.01 702.99,-234.42 737.61,-233.07"/>
<polygon fill="#9a32cd" stroke="#9a32cd" points="625.95,-233.92 616.09,-237.8 626.22,-240.91 625.95,-233.92"/>
<text text-anchor="middle" x="671" y="-239" font-family="Helvetica,sans-Serif" font-size="10.00"> subsystems</text>
</g>
<!-- Node14 -->
<g id="node14" class="node">
<title>Node14</title>
<g id="a_node14"><a xlink:title=" ">
<polygon fill="white" stroke="#666666" points="365,-274 210,-274 210,-244 365,-244 365,-274"/>
<text text-anchor="start" x="218" y="-262" font-family="Helvetica,sans-Serif" font-size="10.00">std::shared_ptr&lt; ccf</text>
<text text-anchor="middle" x="287.5" y="-251" font-family="Helvetica,sans-Serif" font-size="10.00">::AbstractNodeSubSystem &gt;</text>
</a>
</g>
</g>
<!-- Node14&#45;&gt;Node13 -->
<g id="edge14" class="edge">
<title>Node14&#45;&gt;Node13</title>
<path fill="none" stroke="#9a32cd" stroke-dasharray="5,2" d="M375.45,-252.57C399.65,-250.78 425.85,-248.85 449.77,-247.08"/>
<polygon fill="#9a32cd" stroke="#9a32cd" points="374.93,-249.1 365.21,-253.33 375.44,-256.08 374.93,-249.1"/>
<text text-anchor="middle" x="407.5" y="-254" font-family="Helvetica,sans-Serif" font-size="10.00"> elements</text>
</g>
<!-- Node15 -->
<g id="node15" class="node">
<title>Node15</title>
<g id="a_node15"><a xlink:href="classccf_1_1AbstractNodeSubSystem.html" target="_top" xlink:title=" ">
<polygon fill="white" stroke="#666666" points="157,-268.5 0,-268.5 0,-249.5 157,-249.5 157,-268.5"/>
<text text-anchor="middle" x="78.5" y="-256.5" font-family="Helvetica,sans-Serif" font-size="10.00">ccf::AbstractNodeSubSystem</text>
</a>
</g>
</g>
<!-- Node15&#45;&gt;Node14 -->
<g id="edge15" class="edge">
<title>Node15&#45;&gt;Node14</title>
<path fill="none" stroke="#9a32cd" stroke-dasharray="5,2" d="M167.35,-259C181.46,-259 195.96,-259 209.77,-259"/>
<polygon fill="#9a32cd" stroke="#9a32cd" points="167.17,-255.5 157.17,-259 167.17,-262.5 167.17,-255.5"/>
<text text-anchor="middle" x="183.5" y="-262" font-family="Helvetica,sans-Serif" font-size="10.00"> ptr</text>
</g>
<!-- Node16 -->
<g id="node16" class="node">
<title>Node16</title>
<g id="a_node16"><a xlink:title=" ">
<polygon fill="white" stroke="#666666" points="909,-30 726,-30 726,0 909,0 909,-30"/>
<text text-anchor="start" x="734" y="-18" font-family="Helvetica,sans-Serif" font-size="10.00">std::unique_ptr&lt; externalexecutor</text>
<text text-anchor="middle" x="817.5" y="-7" font-family="Helvetica,sans-Serif" font-size="10.00">::ImplIndex &gt;</text>
</a>
</g>
</g>
<!-- Node16&#45;&gt;Node1 -->
<g id="edge16" class="edge">
<title>Node16&#45;&gt;Node1</title>
<path fill="none" stroke="#9a32cd" stroke-dasharray="5,2" d="M890.24,-32.97C896.62,-34.89 902.95,-36.91 909,-39 949.26,-52.94 960.82,-54.5 997,-77 1026.08,-95.08 1055.5,-122.09 1072.59,-138.85"/>
<polygon fill="#9a32cd" stroke="#9a32cd" points="890.79,-29.49 880.21,-30.05 888.83,-36.21 890.79,-29.49"/>
<text text-anchor="middle" x="962" y="-80" font-family="Helvetica,sans-Serif" font-size="10.00"> impl_index</text>
</g>
<!-- Node17 -->
<g id="node17" class="node">
<title>Node17</title>
<g id="a_node17"><a xlink:href="classexternalexecutor_1_1ImplIndex.html" target="_top" xlink:title=" ">
<polygon fill="white" stroke="#666666" points="610,-24.5 456,-24.5 456,-5.5 610,-5.5 610,-24.5"/>
<text text-anchor="middle" x="533" y="-12.5" font-family="Helvetica,sans-Serif" font-size="10.00">externalexecutor::ImplIndex</text>
</a>
</g>
</g>
<!-- Node17&#45;&gt;Node16 -->
<g id="edge17" class="edge">
<title>Node17&#45;&gt;Node16</title>
<path fill="none" stroke="#9a32cd" stroke-dasharray="5,2" d="M620.3,-15C653.77,-15 692.11,-15 725.97,-15"/>
<polygon fill="#9a32cd" stroke="#9a32cd" points="620.08,-11.5 610.08,-15 620.08,-18.5 620.08,-11.5"/>
<text text-anchor="middle" x="671" y="-18" font-family="Helvetica,sans-Serif" font-size="10.00"> ptr</text>
</g>
</g>
</svg>
