<?xml version="1.0" encoding="UTF-8" standalone="no"?>
<!DOCTYPE svg PUBLIC "-//W3C//DTD SVG 1.1//EN"
 "http://www.w3.org/Graphics/SVG/1.1/DTD/svg11.dtd">
<!-- Generated by graphviz version 2.43.0 (0)
 -->
<!-- Title: src/apps Pages: 1 -->
<svg width="630pt" height="141pt"
 viewBox="0.00 0.00 630.00 141.00" xmlns="http://www.w3.org/2000/svg" xmlns:xlink="http://www.w3.org/1999/xlink">
<g id="graph0" class="graph" transform="scale(1 1) rotate(0) translate(4 137)">
<title>src/apps</title>
<g id="clust1" class="cluster">
<title>clusterdir_68267d1309a1af8e8297ef4c3efbcdba</title>
<g id="a_clust1"><a xlink:href="dir_68267d1309a1af8e8297ef4c3efbcdba.html" target="_top" xlink:title="src">
<polygon fill="#edf0f7" stroke="#404040" stroke-dasharray="5,2" points="8,-8 8,-125 560,-125 560,-8 8,-8"/>
<text text-anchor="middle" x="284" y="-113" font-family="Helvetica,sans-Serif" font-size="10.00">src</text>
</a>
</g>
</g>
<g id="clust2" class="cluster">
<title>clusterdir_53adf0b982dc8545998aae3f283a5a58</title>
<g id="a_clust2"><a xlink:href="dir_53adf0b982dc8545998aae3f283a5a58.html" target="_top">
<polygon fill="#edf0f7" stroke="#404040" stroke-width="2" points="234,-63 234,-98 552,-98 552,-63 234,-63"/>
</a>
</g>
</g>
<!-- dir_122f4add68bb94b3fee614989bbbd8f9 -->
<g id="node1" class="node">
<title>dir_122f4add68bb94b3fee614989bbbd8f9</title>
<g id="a_node1"><a xlink:href="dir_122f4add68bb94b3fee614989bbbd8f9.html" target="_top" xlink:title="ds">
<polygon fill="#a2b4d6" stroke="#404040" points="484.5,-35 455.5,-35 455.5,-16 484.5,-16 484.5,-35"/>
<text text-anchor="middle" x="470" y="-23" font-family="Helvetica,sans-Serif" font-size="10.00">ds</text>
</a>
</g>
</g>
<!-- dir_44454380e89751d088dd05c94905df2f -->
<g id="node2" class="node">
<title>dir_44454380e89751d088dd05c94905df2f</title>
<g id="a_node2"><a xlink:href="dir_44454380e89751d088dd05c94905df2f.html" target="_top" xlink:title="clients">
<polygon fill="#a2b4d6" stroke="red" points="551.5,-35 502.5,-35 502.5,-16 551.5,-16 551.5,-35"/>
<text text-anchor="middle" x="527" y="-23" font-family="Helvetica,sans-Serif" font-size="10.00">clients</text>
</a>
</g>
</g>
<!-- dir_a2b23ad3d4048fef2ffce6bed40d1385 -->
<g id="node3" class="node">
<title>dir_a2b23ad3d4048fef2ffce6bed40d1385</title>
<g id="a_node3"><a xlink:href="dir_a2b23ad3d4048fef2ffce6bed40d1385.html" target="_top" xlink:title="endpoints">
<polygon fill="#a2b4d6" stroke="red" points="81.5,-35 16.5,-35 16.5,-16 81.5,-16 81.5,-35"/>
<text text-anchor="middle" x="49" y="-23" font-family="Helvetica,sans-Serif" font-size="10.00">endpoints</text>
</a>
</g>
</g>
<!-- dir_2d29d7dff7c7baf1180920f6796c23ae -->
<g id="node4" class="node">
<title>dir_2d29d7dff7c7baf1180920f6796c23ae</title>
<g id="a_node4"><a xlink:href="dir_2d29d7dff7c7baf1180920f6796c23ae.html" target="_top" xlink:title="http">
<polygon fill="#a2b4d6" stroke="#404040" points="213,-35 177,-35 177,-16 213,-16 213,-35"/>
<text text-anchor="middle" x="195" y="-23" font-family="Helvetica,sans-Serif" font-size="10.00">http</text>
</a>
</g>
</g>
<!-- dir_18ae7af74d885898b85cbb543ae51b63 -->
<g id="node5" class="node">
<title>dir_18ae7af74d885898b85cbb543ae51b63</title>
<g id="a_node5"><a xlink:href="dir_18ae7af74d885898b85cbb543ae51b63.html" target="_top" xlink:title="node">
<polygon fill="#a2b4d6" stroke="red" points="319.5,-35 278.5,-35 278.5,-16 319.5,-16 319.5,-35"/>
<text text-anchor="middle" x="299" y="-23" font-family="Helvetica,sans-Serif" font-size="10.00">node</text>
</a>
</g>
</g>
<!-- dir_1af0ddd77af1c20f0c9558f89bd86ab0 -->
<g id="node6" class="node">
<title>dir_1af0ddd77af1c20f0c9558f89bd86ab0</title>
<g id="a_node6"><a xlink:href="dir_1af0ddd77af1c20f0c9558f89bd86ab0.html" target="_top" xlink:title="indexing">
<polygon fill="#a2b4d6" stroke="red" points="158.5,-35 99.5,-35 99.5,-16 158.5,-16 158.5,-35"/>
<text text-anchor="middle" x="129" y="-23" font-family="Helvetica,sans-Serif" font-size="10.00">indexing</text>
</a>
</g>
</g>
<!-- dir_4c8befd6991d7a2e9d66c427274b8c22 -->
<g id="node7" class="node">
<title>dir_4c8befd6991d7a2e9d66c427274b8c22</title>
<g id="a_node7"><a xlink:href="dir_4c8befd6991d7a2e9d66c427274b8c22.html" target="_top" xlink:title="kv">
<polygon fill="#a2b4d6" stroke="#404040" points="260.5,-35 231.5,-35 231.5,-16 260.5,-16 260.5,-35"/>
<text text-anchor="middle" x="246" y="-23" font-family="Helvetica,sans-Serif" font-size="10.00">kv</text>
</a>
</g>
</g>
<!-- dir_3dcea8250b5ce8d5bc595fbbad3e8f21 -->
<g id="node8" class="node">
<title>dir_3dcea8250b5ce8d5bc595fbbad3e8f21</title>
<g id="a_node8"><a xlink:href="dir_3dcea8250b5ce8d5bc595fbbad3e8f21.html" target="_top" xlink:title="js">
<polygon fill="#a2b4d6" stroke="#404040" points="366.5,-35 337.5,-35 337.5,-16 366.5,-16 366.5,-35"/>
<text text-anchor="middle" x="352" y="-23" font-family="Helvetica,sans-Serif" font-size="10.00">js</text>
</a>
</g>
</g>
<!-- dir_4f691f982165d1317925cee58b4b4f56 -->
<g id="node9" class="node">
<title>dir_4f691f982165d1317925cee58b4b4f56</title>
<g id="a_node9"><a xlink:href="dir_4f691f982165d1317925cee58b4b4f56.html" target="_top" xlink:title="service">
<polygon fill="#a2b4d6" stroke="red" points="437,-35 385,-35 385,-16 437,-16 437,-35"/>
<text text-anchor="middle" x="411" y="-23" font-family="Helvetica,sans-Serif" font-size="10.00">service</text>
</a>
</g>
</g>
<!-- dir_53adf0b982dc8545998aae3f283a5a58 -->
<g id="node10" class="node">
<title>dir_53adf0b982dc8545998aae3f283a5a58</title>
<text text-anchor="middle" x="524" y="-78" font-family="Helvetica,sans-Serif" font-size="10.00">apps</text>
</g>
<!-- dir_88d5bc67d447a911ad6eaf93832c9ab4 -->
<g id="node11" class="node">
<title>dir_88d5bc67d447a911ad6eaf93832c9ab4</title>
<g id="a_node11"><a xlink:href="dir_88d5bc67d447a911ad6eaf93832c9ab4.html" target="_top" xlink:title="external_executor">
<polygon fill="#a2b4d6" stroke="#404040" points="346,-90 242,-90 242,-71 346,-71 346,-90"/>
<text text-anchor="middle" x="294" y="-78" font-family="Helvetica,sans-Serif" font-size="10.00">external_executor</text>
</a>
</g>
</g>
<!-- dir_88d5bc67d447a911ad6eaf93832c9ab4&#45;&gt;dir_122f4add68bb94b3fee614989bbbd8f9 -->
<g id="edge1" class="edge">
<title>dir_88d5bc67d447a911ad6eaf93832c9ab4&#45;&gt;dir_122f4add68bb94b3fee614989bbbd8f9</title>
<path fill="none" stroke="#63b8ff" d="M325.01,-70.97C353.91,-62.89 398.4,-50.16 445.8,-34.92"/>
<polygon fill="#63b8ff" stroke="#63b8ff" points="446.88,-38.25 455.32,-31.84 444.73,-31.59 446.88,-38.25"/>
<g id="a_edge1&#45;headlabel"><a xlink:href="dir_000018_000014.html" target="_top" xlink:title="1">
<text text-anchor="middle" x="444.34" y="-39.56" font-family="Helvetica,sans-Serif" font-size="10.00" fill="#63b8ff">1</text>
</a>
</g>
</g>
<!-- dir_88d5bc67d447a911ad6eaf93832c9ab4&#45;&gt;dir_a2b23ad3d4048fef2ffce6bed40d1385 -->
<g id="edge6" class="edge">
<title>dir_88d5bc67d447a911ad6eaf93832c9ab4&#45;&gt;dir_a2b23ad3d4048fef2ffce6bed40d1385</title>
<path fill="none" stroke="#63b8ff" d="M254.64,-70.98C209.99,-61.33 137.46,-45.64 91.54,-35.7"/>
<polygon fill="#63b8ff" stroke="#63b8ff" points="92.12,-32.25 81.6,-33.55 90.64,-39.09 92.12,-32.25"/>
<g id="a_edge6&#45;headlabel"><a xlink:href="dir_000018_000017.html" target="_top" xlink:title="2">
<text text-anchor="middle" x="96.23" y="-27.73" font-family="Helvetica,sans-Serif" font-size="10.00" fill="#63b8ff">2</text>
</a>
</g>
</g>
<!-- dir_88d5bc67d447a911ad6eaf93832c9ab4&#45;&gt;dir_2d29d7dff7c7baf1180920f6796c23ae -->
<g id="edge4" class="edge">
<title>dir_88d5bc67d447a911ad6eaf93832c9ab4&#45;&gt;dir_2d29d7dff7c7baf1180920f6796c23ae</title>
<path fill="none" stroke="#63b8ff" d="M278.09,-70.98C262.45,-62.61 238.34,-49.7 220.12,-39.95"/>
<polygon fill="#63b8ff" stroke="#63b8ff" points="221.66,-36.8 211.2,-35.17 218.36,-42.98 221.66,-36.8"/>
<g id="a_edge4&#45;headlabel"><a xlink:href="dir_000018_000021.html" target="_top" xlink:title="1">
<text text-anchor="middle" x="226.17" y="-33.5" font-family="Helvetica,sans-Serif" font-size="10.00" fill="#63b8ff">1</text>
</a>
</g>
</g>
<!-- dir_88d5bc67d447a911ad6eaf93832c9ab4&#45;&gt;dir_18ae7af74d885898b85cbb543ae51b63 -->
<g id="edge2" class="edge">
<title>dir_88d5bc67d447a911ad6eaf93832c9ab4&#45;&gt;dir_18ae7af74d885898b85cbb543ae51b63</title>
<path fill="none" stroke="#63b8ff" d="M294.83,-70.75C295.48,-63.8 296.42,-53.85 297.24,-45.13"/>
<polygon fill="#63b8ff" stroke="#63b8ff" points="300.73,-45.37 298.19,-35.09 293.77,-44.72 300.73,-45.37"/>
<g id="a_edge2&#45;headlabel"><a xlink:href="dir_000018_000033.html" target="_top" xlink:title="4">
<text text-anchor="middle" x="303.22" y="-46.72" font-family="Helvetica,sans-Serif" font-size="10.00" fill="#63b8ff">4</text>
</a>
</g>
</g>
<!-- dir_88d5bc67d447a911ad6eaf93832c9ab4&#45;&gt;dir_1af0ddd77af1c20f0c9558f89bd86ab0 -->
<g id="edge3" class="edge">
<title>dir_88d5bc67d447a911ad6eaf93832c9ab4&#45;&gt;dir_1af0ddd77af1c20f0c9558f89bd86ab0</title>
<path fill="none" stroke="#63b8ff" d="M267.49,-70.98C239.79,-62.09 196.14,-48.07 165.26,-38.15"/>
<polygon fill="#63b8ff" stroke="#63b8ff" points="166.31,-34.81 155.72,-35.08 164.17,-41.47 166.31,-34.81"/>
<g id="a_edge3&#45;headlabel"><a xlink:href="dir_000018_000025.html" target="_top" xlink:title="1">
<text text-anchor="middle" x="170.6" y="-30.7" font-family="Helvetica,sans-Serif" font-size="10.00" fill="#63b8ff">1</text>
</a>
</g>
</g>
<!-- dir_88d5bc67d447a911ad6eaf93832c9ab4&#45;&gt;dir_4c8befd6991d7a2e9d66c427274b8c22 -->
<g id="edge5" class="edge">
<title>dir_88d5bc67d447a911ad6eaf93832c9ab4&#45;&gt;dir_4c8befd6991d7a2e9d66c427274b8c22</title>
<path fill="none" stroke="#63b8ff" d="M286.07,-70.75C279.15,-63.11 268.93,-51.82 260.55,-42.56"/>
<polygon fill="#63b8ff" stroke="#63b8ff" points="263.09,-40.15 253.78,-35.09 257.9,-44.85 263.09,-40.15"/>
<g id="a_edge5&#45;headlabel"><a xlink:href="dir_000018_000029.html" target="_top" xlink:title="1">
<text text-anchor="middle" x="267.6" y="-38.41" font-family="Helvetica,sans-Serif" font-size="10.00" fill="#63b8ff">1</text>
</a>
</g>
</g>
<!-- dir_d44c64559bbebec7f509842c48db8b23 -->
<g id="node14" class="node">
<title>dir_d44c64559bbebec7f509842c48db8b23</title>
<g id="a_node14"><a xlink:href="dir_d44c64559bbebec7f509842c48db8b23.html" target="_top" xlink:title="include">
<polygon fill="#edf0f7" stroke="red" points="622,-35 570,-35 570,-16 622,-16 622,-35"/>
<text text-anchor="middle" x="596" y="-23" font-family="Helvetica,sans-Serif" font-size="10.00">include</text>
</a>
</g>
</g>
<!-- dir_88d5bc67d447a911ad6eaf93832c9ab4&#45;&gt;dir_d44c64559bbebec7f509842c48db8b23 -->
<g id="edge7" class="edge">
<title>dir_88d5bc67d447a911ad6eaf93832c9ab4&#45;&gt;dir_d44c64559bbebec7f509842c48db8b23</title>
<path fill="none" stroke="#63b8ff" d="M322.37,-71C332.58,-68.16 344.24,-65.17 355,-63 443.65,-45.15 470.23,-52.7 559.82,-35.69"/>
<polygon fill="#63b8ff" stroke="#63b8ff" points="560.72,-39.08 569.87,-33.73 559.38,-32.21 560.72,-39.08"/>
<g id="a_edge7&#45;headlabel"><a xlink:href="dir_000018_000023.html" target="_top" xlink:title="22">
<text text-anchor="middle" x="557.74" y="-40.05" font-family="Helvetica,sans-Serif" font-size="10.00" fill="#63b8ff">22</text>
</a>
</g>
</g>
<!-- dir_17be9e3e5392a98208079abc1cb5a0b0 -->
<g id="node12" class="node">
<title>dir_17be9e3e5392a98208079abc1cb5a0b0</title>
<g id="a_node12"><a xlink:href="dir_17be9e3e5392a98208079abc1cb5a0b0.html" target="_top" xlink:title="js_generic">
<polygon fill="#a2b4d6" stroke="#404040" points="430,-90 364,-90 364,-71 430,-71 430,-90"/>
<text text-anchor="middle" x="397" y="-78" font-family="Helvetica,sans-Serif" font-size="10.00">js_generic</text>
</a>
</g>
</g>
<!-- dir_17be9e3e5392a98208079abc1cb5a0b0&#45;&gt;dir_18ae7af74d885898b85cbb543ae51b63 -->
<g id="edge8" class="edge">
<title>dir_17be9e3e5392a98208079abc1cb5a0b0&#45;&gt;dir_18ae7af74d885898b85cbb543ae51b63</title>
<path fill="none" stroke="#63b8ff" d="M381.25,-70.98C365.77,-62.61 341.91,-49.7 323.86,-39.95"/>
<polygon fill="#63b8ff" stroke="#63b8ff" points="325.49,-36.85 315.03,-35.17 322.16,-43.01 325.49,-36.85"/>
<g id="a_edge8&#45;headlabel"><a xlink:href="dir_000027_000033.html" target="_top" xlink:title="1">
<text text-anchor="middle" x="330.01" y="-33.56" font-family="Helvetica,sans-Serif" font-size="10.00" fill="#63b8ff">1</text>
</a>
</g>
</g>
<!-- dir_17be9e3e5392a98208079abc1cb5a0b0&#45;&gt;dir_4c8befd6991d7a2e9d66c427274b8c22 -->
<g id="edge10" class="edge">
<title>dir_17be9e3e5392a98208079abc1cb5a0b0&#45;&gt;dir_4c8befd6991d7a2e9d66c427274b8c22</title>
<path fill="none" stroke="#63b8ff" d="M375.72,-70.87C369.11,-68.27 361.78,-65.45 355,-63 320.36,-50.5 309.27,-48.17 270.57,-35.12"/>
<polygon fill="#63b8ff" stroke="#63b8ff" points="271.3,-31.67 260.71,-31.77 269.05,-38.3 271.3,-31.67"/>
<g id="a_edge10&#45;headlabel"><a xlink:href="dir_000027_000029.html" target="_top" xlink:title="1">
<text text-anchor="middle" x="275.62" y="-27.64" font-family="Helvetica,sans-Serif" font-size="10.00" fill="#63b8ff">1</text>
</a>
</g>
</g>
<!-- dir_17be9e3e5392a98208079abc1cb5a0b0&#45;&gt;dir_3dcea8250b5ce8d5bc595fbbad3e8f21 -->
<g id="edge9" class="edge">
<title>dir_17be9e3e5392a98208079abc1cb5a0b0&#45;&gt;dir_3dcea8250b5ce8d5bc595fbbad3e8f21</title>
<path fill="none" stroke="#63b8ff" d="M389.57,-70.75C383.15,-63.18 373.69,-52.05 365.88,-42.84"/>
<polygon fill="#63b8ff" stroke="#63b8ff" points="368.43,-40.45 359.29,-35.09 363.1,-44.98 368.43,-40.45"/>
<g id="a_edge9&#45;headlabel"><a xlink:href="dir_000027_000026.html" target="_top" xlink:title="1">
<text text-anchor="middle" x="372.92" y="-38.85" font-family="Helvetica,sans-Serif" font-size="10.00" fill="#63b8ff">1</text>
</a>
</g>
</g>
<!-- dir_17be9e3e5392a98208079abc1cb5a0b0&#45;&gt;dir_4f691f982165d1317925cee58b4b4f56 -->
<g id="edge11" class="edge">
<title>dir_17be9e3e5392a98208079abc1cb5a0b0&#45;&gt;dir_4f691f982165d1317925cee58b4b4f56</title>
<path fill="none" stroke="#63b8ff" d="M399.31,-70.75C401.17,-63.72 403.84,-53.62 406.15,-44.84"/>
<polygon fill="#63b8ff" stroke="#63b8ff" points="409.56,-45.65 408.73,-35.09 402.79,-43.86 409.56,-45.65"/>
<g id="a_edge11&#45;headlabel"><a xlink:href="dir_000027_000042.html" target="_top" xlink:title="1">
<text text-anchor="middle" x="411.39" y="-47.35" font-family="Helvetica,sans-Serif" font-size="10.00" fill="#63b8ff">1</text>
</a>
</g>
</g>
<!-- dir_17be9e3e5392a98208079abc1cb5a0b0&#45;&gt;dir_d44c64559bbebec7f509842c48db8b23 -->
<g id="edge12" class="edge">
<title>dir_17be9e3e5392a98208079abc1cb5a0b0&#45;&gt;dir_d44c64559bbebec7f509842c48db8b23</title>
<path fill="none" stroke="#63b8ff" d="M417.35,-71C424.44,-68.22 432.5,-65.27 440,-63 491.01,-47.54 507.3,-48.32 559.94,-35.92"/>
<polygon fill="#63b8ff" stroke="#63b8ff" points="560.92,-39.28 569.83,-33.54 559.28,-32.48 560.92,-39.28"/>
<g id="a_edge12&#45;headlabel"><a xlink:href="dir_000027_000023.html" target="_top" xlink:title="10">
<text text-anchor="middle" x="558.09" y="-40.39" font-family="Helvetica,sans-Serif" font-size="10.00" fill="#63b8ff">10</text>
</a>
</g>
</g>
<!-- dir_42c804dea09c572d6c8990717f45801b -->
<g id="node13" class="node">
<title>dir_42c804dea09c572d6c8990717f45801b</title>
<g id="a_node13"><a xlink:href="dir_42c804dea09c572d6c8990717f45801b.html" target="_top" xlink:title="tpcc">
<polygon fill="#a2b4d6" stroke="#404040" points="485.5,-90 448.5,-90 448.5,-71 485.5,-71 485.5,-90"/>
<text text-anchor="middle" x="467" y="-78" font-family="Helvetica,sans-Serif" font-size="10.00">tpcc</text>
</a>
</g>
</g>
<!-- dir_42c804dea09c572d6c8990717f45801b&#45;&gt;dir_122f4add68bb94b3fee614989bbbd8f9 -->
<g id="edge13" class="edge">
<title>dir_42c804dea09c572d6c8990717f45801b&#45;&gt;dir_122f4add68bb94b3fee614989bbbd8f9</title>
<path fill="none" stroke="#63b8ff" d="M467.5,-70.75C467.89,-63.8 468.45,-53.85 468.95,-45.13"/>
<polygon fill="#63b8ff" stroke="#63b8ff" points="472.44,-45.27 469.51,-35.09 465.45,-44.88 472.44,-45.27"/>
<g id="a_edge13&#45;headlabel"><a xlink:href="dir_000049_000014.html" target="_top" xlink:title="2">
<text text-anchor="middle" x="475.07" y="-46.52" font-family="Helvetica,sans-Serif" font-size="10.00" fill="#63b8ff">2</text>
</a>
</g>
</g>
<!-- dir_42c804dea09c572d6c8990717f45801b&#45;&gt;dir_44454380e89751d088dd05c94905df2f -->
<g id="edge14" class="edge">
<title>dir_42c804dea09c572d6c8990717f45801b&#45;&gt;dir_44454380e89751d088dd05c94905df2f</title>
<path fill="none" stroke="#63b8ff" d="M476.64,-70.98C485.51,-63.15 498.87,-51.34 509.61,-41.86"/>
<polygon fill="#63b8ff" stroke="#63b8ff" points="512.01,-44.41 517.18,-35.17 507.37,-39.17 512.01,-44.41"/>
<g id="a_edge14&#45;headlabel"><a xlink:href="dir_000049_000008.html" target="_top" xlink:title="1">
<text text-anchor="middle" x="511.19" y="-46.42" font-family="Helvetica,sans-Serif" font-size="10.00" fill="#63b8ff">1</text>
</a>
</g>
</g>
<!-- dir_42c804dea09c572d6c8990717f45801b&#45;&gt;dir_d44c64559bbebec7f509842c48db8b23 -->
<g id="edge15" class="edge">
<title>dir_42c804dea09c572d6c8990717f45801b&#45;&gt;dir_d44c64559bbebec7f509842c48db8b23</title>
<path fill="none" stroke="#63b8ff" d="M480.4,-70.92C484.94,-68.2 490.1,-65.31 495,-63 515.98,-53.13 540.4,-44.24 559.98,-37.7"/>
<polygon fill="#63b8ff" stroke="#63b8ff" points="561.31,-40.95 569.73,-34.51 559.13,-34.3 561.31,-40.95"/>
<g id="a_edge15&#45;headlabel"><a xlink:href="dir_000049_000023.html" target="_top" xlink:title="6">
<text text-anchor="middle" x="558.78" y="-42.27" font-family="Helvetica,sans-Serif" font-size="10.00" fill="#63b8ff">6</text>
</a>
</g>
</g>
</g>
</svg>
