<?xml version="1.0" encoding="UTF-8" standalone="no"?>
<!DOCTYPE svg PUBLIC "-//W3C//DTD SVG 1.1//EN"
 "http://www.w3.org/Graphics/SVG/1.1/DTD/svg11.dtd">
<!-- Generated by graphviz version 2.43.0 (0)
 -->
<!-- Title: src/node/rpc/rpc_context_impl.h Pages: 1 -->
<!--zoomable 599 -->
<svg id="main" version="1.1" xmlns="http://www.w3.org/2000/svg" xmlns:xlink="http://www.w3.org/1999/xlink" xml:space="preserve" onload="init(evt)">
<style type="text/css"><![CDATA[
.edge:hover path { stroke: red; }
.edge:hover polygon { stroke: red; fill: red; }
]]></style>
<script type="text/javascript"><![CDATA[
var edges = document.getElementsByTagName('g');
if (edges && edges.length) {
  for (var i=0;i<edges.length;i++) {
    if (edges[i].id.substr(0,4)=='edge') {
      edges[i].setAttribute('class','edge');
    }
  }
}
]]></script>
        <defs>
                <circle id="rim" cx="0" cy="0" r="7"/>
                <circle id="rim2" cx="0" cy="0" r="3.5"/>
                <g id="zoomPlus">
                        <use xlink:href="#rim" fill="#404040">
                                <set attributeName="fill" to="#808080" begin="zoomplus.mouseover" end="zoomplus.mouseout"/>
                        </use>
                        <path d="M-4,0h8M0,-4v8" fill="none" stroke="white" stroke-width="1.5" pointer-events="none"/>
                </g>
                <g id="zoomMin">
                        <use xlink:href="#rim" fill="#404040">
                                <set attributeName="fill" to="#808080" begin="zoomminus.mouseover" end="zoomminus.mouseout"/>
                        </use>
                        <path d="M-4,0h8" fill="none" stroke="white" stroke-width="1.5" pointer-events="none"/>
                </g>
                <g id="dirArrow">
                        <path fill="none" stroke="white" stroke-width="1.5" d="M0,-3.0v7 M-2.5,-0.5L0,-3.0L2.5,-0.5"/>
                </g>
               <g id="resetDef">
                       <use xlink:href="#rim2" fill="#404040">
                               <set attributeName="fill" to="#808080" begin="reset.mouseover" end="reset.mouseout"/>
                       </use>
               </g>
        </defs>

<script type="text/javascript">
var viewWidth = 1205;
var viewHeight = 599;
var sectionId = 'dynsection-1';
</script>
<script xlink:href="svgpan.js"/>
<svg id="graph" class="graph">
<g id="viewport">
<title>src/node/rpc/rpc_context_impl.h</title>
<!-- Node1 -->
<g id="node1" class="node">
<title>Node1</title>
<g id="a_node1"><a xlink:title=" ">
<polygon fill="#999999" stroke="#666666" points="367,-591 231,-591 231,-561 367,-561 367,-591"/>
<text text-anchor="start" x="239" y="-579" font-family="Helvetica,sans-Serif" font-size="10.00">src/node/rpc/rpc_context</text>
<text text-anchor="middle" x="299" y="-568" font-family="Helvetica,sans-Serif" font-size="10.00">_impl.h</text>
</a>
</g>
</g>
<!-- Node2 -->
<g id="node2" class="node">
<title>Node2</title>
<g id="a_node2"><a xlink:href="external__executor_8cpp.html" target="_top" xlink:title=" ">
<polygon fill="white" stroke="#666666" points="148,-393 0,-393 0,-363 148,-363 148,-393"/>
<text text-anchor="start" x="8" y="-381" font-family="Helvetica,sans-Serif" font-size="10.00">src/apps/external_executor</text>
<text text-anchor="middle" x="74" y="-370" font-family="Helvetica,sans-Serif" font-size="10.00">/external_executor.cpp</text>
</a>
</g>
</g>
<!-- Node1&#45;&gt;Node2 -->
<g id="edge1" class="edge">
<title>Node1&#45;&gt;Node2</title>
<path fill="none" stroke="#63b8ff" d="M220.84,-563.08C175.03,-554.53 123.07,-541.6 107,-525 71.57,-488.4 71.05,-422.26 72.75,-393.27"/>
<polygon fill="#63b8ff" stroke="#63b8ff" points="220.35,-566.55 230.81,-564.9 221.6,-559.66 220.35,-566.55"/>
</g>
<!-- Node3 -->
<g id="node3" class="node">
<title>Node3</title>
<g id="a_node3"><a xlink:href="js__generic__base_8cpp.html" target="_top" xlink:title=" ">
<polygon fill="white" stroke="#666666" points="358,-525 240,-525 240,-495 358,-495 358,-525"/>
<text text-anchor="start" x="248" y="-513" font-family="Helvetica,sans-Serif" font-size="10.00">src/apps/js_generic</text>
<text text-anchor="middle" x="299" y="-502" font-family="Helvetica,sans-Serif" font-size="10.00">/js_generic_base.cpp</text>
</a>
</g>
</g>
<!-- Node1&#45;&gt;Node3 -->
<g id="edge2" class="edge">
<title>Node1&#45;&gt;Node3</title>
<path fill="none" stroke="#63b8ff" d="M299,-550.54C299,-541.96 299,-532.61 299,-525.16"/>
<polygon fill="#63b8ff" stroke="#63b8ff" points="295.5,-550.8 299,-560.8 302.5,-550.8 295.5,-550.8"/>
</g>
<!-- Node4 -->
<g id="node4" class="node">
<title>Node4</title>
<g id="a_node4"><a xlink:href="endpoint__registry_8cpp.html" target="_top" xlink:title=" ">
<polygon fill="white" stroke="#666666" points="504,-525 376,-525 376,-495 504,-495 504,-525"/>
<text text-anchor="start" x="384" y="-513" font-family="Helvetica,sans-Serif" font-size="10.00">src/endpoints/endpoint</text>
<text text-anchor="middle" x="440" y="-502" font-family="Helvetica,sans-Serif" font-size="10.00">_registry.cpp</text>
</a>
</g>
</g>
<!-- Node1&#45;&gt;Node4 -->
<g id="edge3" class="edge">
<title>Node1&#45;&gt;Node4</title>
<path fill="none" stroke="#63b8ff" d="M339.13,-556.78C361.36,-546.69 388.57,-534.34 409.13,-525.01"/>
<polygon fill="#63b8ff" stroke="#63b8ff" points="337.6,-553.63 329.94,-560.95 340.5,-560.01 337.6,-553.63"/>
</g>
<!-- Node5 -->
<g id="node5" class="node">
<title>Node5</title>
<g id="a_node5"><a xlink:href="grpc_8h.html" target="_top" xlink:title=" ">
<polygon fill="white" stroke="#666666" points="222,-525 116,-525 116,-495 222,-495 222,-525"/>
<text text-anchor="start" x="124" y="-513" font-family="Helvetica,sans-Serif" font-size="10.00">src/endpoints/grpc</text>
<text text-anchor="middle" x="169" y="-502" font-family="Helvetica,sans-Serif" font-size="10.00">/grpc.h</text>
</a>
</g>
</g>
<!-- Node1&#45;&gt;Node5 -->
<g id="edge4" class="edge">
<title>Node1&#45;&gt;Node5</title>
<path fill="none" stroke="#63b8ff" d="M261.45,-556.51C241.05,-546.47 216.24,-534.26 197.46,-525.01"/>
<polygon fill="#63b8ff" stroke="#63b8ff" points="259.95,-559.68 270.47,-560.95 263.05,-553.4 259.95,-559.68"/>
</g>
<!-- Node8 -->
<g id="node8" class="node">
<title>Node8</title>
<g id="a_node8"><a xlink:href="http__rpc__context_8h.html" target="_top" xlink:title=" ">
<polygon fill="white" stroke="#666666" points="669.5,-519.5 522.5,-519.5 522.5,-500.5 669.5,-500.5 669.5,-519.5"/>
<text text-anchor="middle" x="596" y="-507.5" font-family="Helvetica,sans-Serif" font-size="10.00">src/http/http_rpc_context.h</text>
</a>
</g>
</g>
<!-- Node1&#45;&gt;Node8 -->
<g id="edge8" class="edge">
<title>Node1&#45;&gt;Node8</title>
<path fill="none" stroke="#63b8ff" d="M374.04,-558.83C432.05,-546.33 510.06,-529.52 556.47,-519.52"/>
<polygon fill="#63b8ff" stroke="#63b8ff" points="373.22,-555.43 364.18,-560.95 374.69,-562.27 373.22,-555.43"/>
</g>
<!-- Node6 -->
<g id="node6" class="node">
<title>Node6</title>
<g id="a_node6"><a xlink:href="external__executor__indexing_8h.html" target="_top" xlink:title=" ">
<polygon fill="white" stroke="#666666" points="266,-459 102,-459 102,-429 266,-429 266,-459"/>
<text text-anchor="start" x="110" y="-447" font-family="Helvetica,sans-Serif" font-size="10.00">src/apps/external_executor</text>
<text text-anchor="middle" x="184" y="-436" font-family="Helvetica,sans-Serif" font-size="10.00">/external_executor_indexing.h</text>
</a>
</g>
</g>
<!-- Node5&#45;&gt;Node6 -->
<g id="edge5" class="edge">
<title>Node5&#45;&gt;Node6</title>
<path fill="none" stroke="#63b8ff" d="M174.67,-484.83C176.69,-476.17 178.91,-466.7 180.68,-459.16"/>
<polygon fill="#63b8ff" stroke="#63b8ff" points="171.2,-484.26 172.33,-494.8 178.02,-485.86 171.2,-484.26"/>
</g>
<!-- Node6&#45;&gt;Node2 -->
<g id="edge6" class="edge">
<title>Node6&#45;&gt;Node2</title>
<path fill="none" stroke="#63b8ff" d="M150.82,-423.69C133.84,-413.82 113.55,-402.01 98.08,-393.01"/>
<polygon fill="#63b8ff" stroke="#63b8ff" points="149.46,-426.95 159.86,-428.95 152.98,-420.9 149.46,-426.95"/>
</g>
<!-- Node7 -->
<g id="node7" class="node">
<title>Node7</title>
<g id="a_node7"><a xlink:href="external__executor__indexing_8cpp.html" target="_top" xlink:title=" ">
<polygon fill="white" stroke="#666666" points="341.5,-393 166.5,-393 166.5,-363 341.5,-363 341.5,-393"/>
<text text-anchor="start" x="174.5" y="-381" font-family="Helvetica,sans-Serif" font-size="10.00">src/apps/external_executor</text>
<text text-anchor="middle" x="254" y="-370" font-family="Helvetica,sans-Serif" font-size="10.00">/external_executor_indexing.cpp</text>
</a>
</g>
</g>
<!-- Node6&#45;&gt;Node7 -->
<g id="edge7" class="edge">
<title>Node6&#45;&gt;Node7</title>
<path fill="none" stroke="#63b8ff" d="M207.05,-421.92C217.37,-412.49 229.27,-401.61 238.51,-393.16"/>
<polygon fill="#63b8ff" stroke="#63b8ff" points="204.55,-419.47 199.54,-428.8 209.28,-424.63 204.55,-419.47"/>
</g>
<!-- Node9 -->
<g id="node9" class="node">
<title>Node9</title>
<g id="a_node9"><a xlink:href="http2__parser_8h.html" target="_top" xlink:title=" ">
<polygon fill="white" stroke="#666666" points="514,-453.5 388,-453.5 388,-434.5 514,-434.5 514,-453.5"/>
<text text-anchor="middle" x="451" y="-441.5" font-family="Helvetica,sans-Serif" font-size="10.00">src/http/http2_parser.h</text>
</a>
</g>
</g>
<!-- Node8&#45;&gt;Node9 -->
<g id="edge9" class="edge">
<title>Node8&#45;&gt;Node9</title>
<path fill="none" stroke="#63b8ff" d="M566.99,-496.19C538.41,-483.58 495.54,-464.66 470.71,-453.7"/>
<polygon fill="#63b8ff" stroke="#63b8ff" points="565.88,-499.53 576.44,-500.37 568.71,-493.13 565.88,-499.53"/>
</g>
<!-- Node10 -->
<g id="node10" class="node">
<title>Node10</title>
<g id="a_node10"><a xlink:href="http2__session_8h.html" target="_top" xlink:title=" ">
<polygon fill="white" stroke="#666666" points="504.5,-387.5 371.5,-387.5 371.5,-368.5 504.5,-368.5 504.5,-387.5"/>
<text text-anchor="middle" x="438" y="-375.5" font-family="Helvetica,sans-Serif" font-size="10.00">src/http/http2_session.h</text>
</a>
</g>
</g>
<!-- Node8&#45;&gt;Node10 -->
<g id="edge24" class="edge">
<title>Node8&#45;&gt;Node10</title>
<path fill="none" stroke="#63b8ff" d="M534.17,-498.77C473.53,-488.11 388.78,-471.29 379,-459 358.8,-433.61 400.09,-402.37 423.45,-387.56"/>
<polygon fill="#63b8ff" stroke="#63b8ff" points="533.6,-502.23 544.05,-500.49 534.8,-495.33 533.6,-502.23"/>
</g>
<!-- Node19 -->
<g id="node19" class="node">
<title>Node19</title>
<g id="a_node19"><a xlink:href="http__session_8h.html" target="_top" xlink:title=" ">
<polygon fill="white" stroke="#666666" points="659.5,-453.5 532.5,-453.5 532.5,-434.5 659.5,-434.5 659.5,-453.5"/>
<text text-anchor="middle" x="596" y="-441.5" font-family="Helvetica,sans-Serif" font-size="10.00">src/http/http_session.h</text>
</a>
</g>
</g>
<!-- Node8&#45;&gt;Node19 -->
<g id="edge25" class="edge">
<title>Node8&#45;&gt;Node19</title>
<path fill="none" stroke="#63b8ff" d="M596,-490.08C596,-478.13 596,-463.22 596,-453.91"/>
<polygon fill="#63b8ff" stroke="#63b8ff" points="592.5,-490.37 596,-500.37 599.5,-490.37 592.5,-490.37"/>
</g>
<!-- Node20 -->
<g id="node20" class="node">
<title>Node20</title>
<g id="a_node20"><a xlink:href="jwt__key__auto__refresh_8h.html" target="_top" xlink:title=" ">
<polygon fill="white" stroke="#666666" points="879.5,-261 754.5,-261 754.5,-231 879.5,-231 879.5,-261"/>
<text text-anchor="start" x="762.5" y="-249" font-family="Helvetica,sans-Serif" font-size="10.00">src/node/jwt_key_auto</text>
<text text-anchor="middle" x="817" y="-238" font-family="Helvetica,sans-Serif" font-size="10.00">_refresh.h</text>
</a>
</g>
</g>
<!-- Node8&#45;&gt;Node20 -->
<g id="edge27" class="edge">
<title>Node8&#45;&gt;Node20</title>
<path fill="none" stroke="#63b8ff" d="M622.53,-495.48C637.68,-486.71 656.15,-474.12 669,-459 720.5,-398.4 693.69,-357.76 745,-297 757.47,-282.23 775.29,-269.81 790.08,-261.04"/>
<polygon fill="#63b8ff" stroke="#63b8ff" points="620.66,-492.52 613.61,-500.43 624.05,-498.64 620.66,-492.52"/>
</g>
<!-- Node21 -->
<g id="node21" class="node">
<title>Node21</title>
<g id="a_node21"><a xlink:href="forwarder_8h.html" target="_top" xlink:title=" ">
<polygon fill="white" stroke="#666666" points="1058,-453.5 924,-453.5 924,-434.5 1058,-434.5 1058,-453.5"/>
<text text-anchor="middle" x="991" y="-441.5" font-family="Helvetica,sans-Serif" font-size="10.00">src/node/rpc/forwarder.h</text>
</a>
</g>
</g>
<!-- Node8&#45;&gt;Node21 -->
<g id="edge29" class="edge">
<title>Node8&#45;&gt;Node21</title>
<path fill="none" stroke="#63b8ff" d="M658.95,-498.8C736.32,-486.26 866.19,-465.22 938.45,-453.51"/>
<polygon fill="#63b8ff" stroke="#63b8ff" points="658.17,-495.38 648.86,-500.44 659.29,-502.29 658.17,-495.38"/>
</g>
<!-- Node9&#45;&gt;Node10 -->
<g id="edge10" class="edge">
<title>Node9&#45;&gt;Node10</title>
<path fill="none" stroke="#63b8ff" d="M447.23,-424.45C444.79,-412.43 441.72,-397.32 439.81,-387.91"/>
<polygon fill="#63b8ff" stroke="#63b8ff" points="443.83,-425.27 449.25,-434.37 450.69,-423.87 443.83,-425.27"/>
</g>
<!-- Node11 -->
<g id="node11" class="node">
<title>Node11</title>
<g id="a_node11"><a xlink:href="rpc__sessions_8h.html" target="_top" xlink:title=" ">
<polygon fill="white" stroke="#666666" points="511,-321.5 365,-321.5 365,-302.5 511,-302.5 511,-321.5"/>
<text text-anchor="middle" x="438" y="-309.5" font-family="Helvetica,sans-Serif" font-size="10.00">src/enclave/rpc_sessions.h</text>
</a>
</g>
</g>
<!-- Node10&#45;&gt;Node11 -->
<g id="edge11" class="edge">
<title>Node10&#45;&gt;Node11</title>
<path fill="none" stroke="#63b8ff" d="M438,-358.08C438,-346.13 438,-331.22 438,-321.91"/>
<polygon fill="#63b8ff" stroke="#63b8ff" points="434.5,-358.37 438,-368.37 441.5,-358.37 434.5,-358.37"/>
</g>
<!-- Node12 -->
<g id="node12" class="node">
<title>Node12</title>
<g id="a_node12"><a xlink:href="src_2enclave_2enclave_8h.html" target="_top" xlink:title=" ">
<polygon fill="white" stroke="#666666" points="988,-74 866,-74 866,-55 988,-55 988,-74"/>
<text text-anchor="middle" x="927" y="-62" font-family="Helvetica,sans-Serif" font-size="10.00">src/enclave/enclave.h</text>
</a>
</g>
</g>
<!-- Node11&#45;&gt;Node12 -->
<g id="edge12" class="edge">
<title>Node11&#45;&gt;Node12</title>
<path fill="none" stroke="#63b8ff" d="M354.73,-311.1C264.58,-308.13 139.47,-293.2 186,-231 267.87,-121.56 703.34,-80.82 865.82,-69.3"/>
<polygon fill="#63b8ff" stroke="#63b8ff" points="354.89,-314.6 364.99,-311.39 355.09,-307.6 354.89,-314.6"/>
</g>
<!-- Node14 -->
<g id="node14" class="node">
<title>Node14</title>
<g id="a_node14"><a xlink:href="ccf__acme__client_8h.html" target="_top" xlink:title=" ">
<polygon fill="white" stroke="#666666" points="698.5,-255.5 549.5,-255.5 549.5,-236.5 698.5,-236.5 698.5,-255.5"/>
<text text-anchor="middle" x="624" y="-243.5" font-family="Helvetica,sans-Serif" font-size="10.00">src/node/ccf_acme_client.h</text>
</a>
</g>
</g>
<!-- Node11&#45;&gt;Node14 -->
<g id="edge14" class="edge">
<title>Node11&#45;&gt;Node14</title>
<path fill="none" stroke="#63b8ff" d="M472.87,-299C509.6,-286.36 566.53,-266.78 599.02,-255.6"/>
<polygon fill="#63b8ff" stroke="#63b8ff" points="471.4,-295.81 463.08,-302.37 473.68,-302.42 471.4,-295.81"/>
</g>
<!-- Node15 -->
<g id="node15" class="node">
<title>Node15</title>
<g id="a_node15"><a xlink:href="node__state_8h.html" target="_top" xlink:title=" ">
<polygon fill="white" stroke="#666666" points="722,-189.5 598,-189.5 598,-170.5 722,-170.5 722,-189.5"/>
<text text-anchor="middle" x="660" y="-177.5" font-family="Helvetica,sans-Serif" font-size="10.00">src/node/node_state.h</text>
</a>
</g>
</g>
<!-- Node11&#45;&gt;Node15 -->
<g id="edge19" class="edge">
<title>Node11&#45;&gt;Node15</title>
<path fill="none" stroke="#63b8ff" d="M408.38,-297.97C377.61,-282.65 336.7,-256.12 358,-231 388.12,-195.48 518.53,-185.16 597.8,-182.18"/>
<polygon fill="#63b8ff" stroke="#63b8ff" points="407,-301.18 417.53,-302.35 410.02,-294.87 407,-301.18"/>
</g>
<!-- Node17 -->
<g id="node17" class="node">
<title>Node17</title>
<g id="a_node17"><a xlink:href="quote__endorsements__client_8h.html" target="_top" xlink:title=" ">
<polygon fill="white" stroke="#666666" points="531,-261 367,-261 367,-231 531,-231 531,-261"/>
<text text-anchor="start" x="375" y="-249" font-family="Helvetica,sans-Serif" font-size="10.00">src/node/quote_endorsements</text>
<text text-anchor="middle" x="449" y="-238" font-family="Helvetica,sans-Serif" font-size="10.00">_client.h</text>
</a>
</g>
</g>
<!-- Node11&#45;&gt;Node17 -->
<g id="edge20" class="edge">
<title>Node11&#45;&gt;Node17</title>
<path fill="none" stroke="#63b8ff" d="M441.21,-292.35C442.9,-282.47 444.96,-270.51 446.53,-261.36"/>
<polygon fill="#63b8ff" stroke="#63b8ff" points="437.73,-291.92 439.48,-302.37 444.63,-293.11 437.73,-291.92"/>
</g>
<!-- Node18 -->
<g id="node18" class="node">
<title>Node18</title>
<g id="a_node18"><a xlink:href="resharing_8h.html" target="_top" xlink:title=" ">
<polygon fill="white" stroke="#666666" points="311,-255.5 195,-255.5 195,-236.5 311,-236.5 311,-255.5"/>
<text text-anchor="middle" x="253" y="-243.5" font-family="Helvetica,sans-Serif" font-size="10.00">src/node/resharing.h</text>
</a>
</g>
</g>
<!-- Node11&#45;&gt;Node18 -->
<g id="edge22" class="edge">
<title>Node11&#45;&gt;Node18</title>
<path fill="none" stroke="#63b8ff" d="M403.32,-299C366.78,-286.36 310.16,-266.78 277.85,-255.6"/>
<polygon fill="#63b8ff" stroke="#63b8ff" points="402.46,-302.41 413.05,-302.37 404.74,-295.79 402.46,-302.41"/>
</g>
<!-- Node13 -->
<g id="node13" class="node">
<title>Node13</title>
<g id="a_node13"><a xlink:href="enclave_2main_8cpp.html" target="_top" xlink:title=" ">
<polygon fill="white" stroke="#666666" points="987,-19 867,-19 867,0 987,0 987,-19"/>
<text text-anchor="middle" x="927" y="-7" font-family="Helvetica,sans-Serif" font-size="10.00">src/enclave/main.cpp</text>
</a>
</g>
</g>
<!-- Node12&#45;&gt;Node13 -->
<g id="edge13" class="edge">
<title>Node12&#45;&gt;Node13</title>
<path fill="none" stroke="#63b8ff" d="M927,-44.66C927,-35.93 927,-25.99 927,-19.09"/>
<polygon fill="#63b8ff" stroke="#63b8ff" points="923.5,-44.75 927,-54.75 930.5,-44.75 923.5,-44.75"/>
</g>
<!-- Node14&#45;&gt;Node15 -->
<g id="edge15" class="edge">
<title>Node14&#45;&gt;Node15</title>
<path fill="none" stroke="#63b8ff" d="M633.82,-227.55C640.67,-215.36 649.53,-199.61 654.99,-189.91"/>
<polygon fill="#63b8ff" stroke="#63b8ff" points="630.71,-225.94 628.86,-236.37 636.81,-229.37 630.71,-225.94"/>
</g>
<!-- Node15&#45;&gt;Node12 -->
<g id="edge16" class="edge">
<title>Node15&#45;&gt;Node12</title>
<path fill="none" stroke="#63b8ff" d="M689.54,-166.44C744.22,-143.2 859.89,-94.03 906.7,-74.13"/>
<polygon fill="#63b8ff" stroke="#63b8ff" points="687.9,-163.34 680.07,-170.47 690.64,-169.78 687.9,-163.34"/>
</g>
<!-- Node16 -->
<g id="node16" class="node">
<title>Node16</title>
<g id="a_node16"><a xlink:href="gov__effects_8h.html" target="_top" xlink:title=" ">
<polygon fill="white" stroke="#666666" points="750,-129 606,-129 606,-110 750,-110 750,-129"/>
<text text-anchor="middle" x="678" y="-117" font-family="Helvetica,sans-Serif" font-size="10.00">src/node/rpc/gov_effects.h</text>
</a>
</g>
</g>
<!-- Node15&#45;&gt;Node16 -->
<g id="edge17" class="edge">
<title>Node15&#45;&gt;Node16</title>
<path fill="none" stroke="#63b8ff" d="M665.69,-160.49C668.92,-150.01 672.8,-137.39 675.33,-129.17"/>
<polygon fill="#63b8ff" stroke="#63b8ff" points="662.25,-159.78 662.66,-170.37 668.94,-161.84 662.25,-159.78"/>
</g>
<!-- Node16&#45;&gt;Node12 -->
<g id="edge18" class="edge">
<title>Node16&#45;&gt;Node12</title>
<path fill="none" stroke="#63b8ff" d="M727.9,-107.88C774.57,-97.94 843.39,-83.3 886.68,-74.08"/>
<polygon fill="#63b8ff" stroke="#63b8ff" points="727.06,-104.48 718.01,-109.98 728.52,-111.33 727.06,-104.48"/>
</g>
<!-- Node17&#45;&gt;Node15 -->
<g id="edge21" class="edge">
<title>Node17&#45;&gt;Node15</title>
<path fill="none" stroke="#63b8ff" d="M504.88,-228.05C545.8,-215.64 599.63,-199.31 631.92,-189.52"/>
<polygon fill="#63b8ff" stroke="#63b8ff" points="503.86,-224.7 495.3,-230.95 505.89,-231.4 503.86,-224.7"/>
</g>
<!-- Node18&#45;&gt;Node15 -->
<g id="edge23" class="edge">
<title>Node18&#45;&gt;Node15</title>
<path fill="none" stroke="#63b8ff" d="M305.44,-234.53C312.01,-233.29 318.66,-232.09 325,-231 419.9,-214.7 530.46,-198.79 597.82,-189.45"/>
<polygon fill="#63b8ff" stroke="#63b8ff" points="304.37,-231.17 295.2,-236.47 305.68,-238.04 304.37,-231.17"/>
</g>
<!-- Node19&#45;&gt;Node11 -->
<g id="edge26" class="edge">
<title>Node19&#45;&gt;Node11</title>
<path fill="none" stroke="#63b8ff" d="M580.73,-426.65C564.65,-409.82 538.19,-383.27 513,-363 493.13,-347.01 468.15,-331.11 452.63,-321.67"/>
<polygon fill="#63b8ff" stroke="#63b8ff" points="578.33,-429.2 587.75,-434.06 583.42,-424.39 578.33,-429.2"/>
</g>
<!-- Node20&#45;&gt;Node15 -->
<g id="edge28" class="edge">
<title>Node20&#45;&gt;Node15</title>
<path fill="none" stroke="#63b8ff" d="M773.09,-227.1C742.95,-214.82 704.31,-199.06 680.89,-189.52"/>
<polygon fill="#63b8ff" stroke="#63b8ff" points="771.96,-230.42 782.55,-230.95 774.61,-223.94 771.96,-230.42"/>
</g>
<!-- Node21&#45;&gt;Node12 -->
<g id="edge30" class="edge">
<title>Node21&#45;&gt;Node12</title>
<path fill="none" stroke="#63b8ff" d="M1048.93,-432.1C1109.55,-416.95 1196,-383.06 1196,-313 1196,-313 1196,-313 1196,-179 1196,-147.19 1200.51,-131.43 1177,-110 1150,-85.39 1053.16,-73.99 988.24,-69.02"/>
<polygon fill="#63b8ff" stroke="#63b8ff" points="1047.98,-428.73 1039.06,-434.46 1049.6,-435.54 1047.98,-428.73"/>
</g>
<!-- Node22 -->
<g id="node22" class="node">
<title>Node22</title>
<g id="a_node22"><a xlink:href="frontend_8h.html" target="_top" xlink:title=" ">
<polygon fill="white" stroke="#666666" points="1055.5,-387.5 926.5,-387.5 926.5,-368.5 1055.5,-368.5 1055.5,-387.5"/>
<text text-anchor="middle" x="991" y="-375.5" font-family="Helvetica,sans-Serif" font-size="10.00">src/node/rpc/frontend.h</text>
</a>
</g>
</g>
<!-- Node21&#45;&gt;Node22 -->
<g id="edge31" class="edge">
<title>Node21&#45;&gt;Node22</title>
<path fill="none" stroke="#63b8ff" d="M991,-424.08C991,-412.13 991,-397.22 991,-387.91"/>
<polygon fill="#63b8ff" stroke="#63b8ff" points="987.5,-424.37 991,-434.37 994.5,-424.37 987.5,-424.37"/>
</g>
<!-- Node22&#45;&gt;Node15 -->
<g id="edge35" class="edge">
<title>Node22&#45;&gt;Node15</title>
<path fill="none" stroke="#63b8ff" d="M915.97,-369.62C853.42,-362.08 770.56,-348.4 745,-327 709.82,-297.54 731.6,-269.74 707,-231 696.66,-214.71 680.58,-199.01 670.17,-189.68"/>
<polygon fill="#63b8ff" stroke="#63b8ff" points="915.87,-373.14 926.21,-370.83 916.69,-366.19 915.87,-373.14"/>
</g>
<!-- Node23 -->
<g id="node23" class="node">
<title>Node23</title>
<g id="a_node23"><a xlink:href="acme__challenge__frontend_8h.html" target="_top" xlink:title=" ">
<polygon fill="white" stroke="#666666" points="894,-327 754,-327 754,-297 894,-297 894,-327"/>
<text text-anchor="start" x="762" y="-315" font-family="Helvetica,sans-Serif" font-size="10.00">src/node/acme_challenge</text>
<text text-anchor="middle" x="824" y="-304" font-family="Helvetica,sans-Serif" font-size="10.00">_frontend.h</text>
</a>
</g>
</g>
<!-- Node22&#45;&gt;Node23 -->
<g id="edge32" class="edge">
<title>Node22&#45;&gt;Node23</title>
<path fill="none" stroke="#63b8ff" d="M959.13,-364.79C931.09,-354.04 890.27,-338.4 860.83,-327.12"/>
<polygon fill="#63b8ff" stroke="#63b8ff" points="957.89,-368.06 968.48,-368.37 960.39,-361.52 957.89,-368.06"/>
</g>
<!-- Node24 -->
<g id="node24" class="node">
<title>Node24</title>
<g id="a_node24"><a xlink:href="member__frontend_8h.html" target="_top" xlink:title=" ">
<polygon fill="white" stroke="#666666" points="1101,-195 981,-195 981,-165 1101,-165 1101,-195"/>
<text text-anchor="start" x="989" y="-183" font-family="Helvetica,sans-Serif" font-size="10.00">src/node/rpc/member</text>
<text text-anchor="middle" x="1041" y="-172" font-family="Helvetica,sans-Serif" font-size="10.00">_frontend.h</text>
</a>
</g>
</g>
<!-- Node22&#45;&gt;Node24 -->
<g id="edge36" class="edge">
<title>Node22&#45;&gt;Node24</title>
<path fill="none" stroke="#63b8ff" d="M1031.38,-364.56C1049.3,-356.8 1068.63,-344.81 1079,-327 1104.43,-283.31 1069.92,-222.51 1051.39,-195.24"/>
<polygon fill="#63b8ff" stroke="#63b8ff" points="1029.63,-361.49 1021.64,-368.44 1032.23,-367.99 1029.63,-361.49"/>
</g>
<!-- Node25 -->
<g id="node25" class="node">
<title>Node25</title>
<g id="a_node25"><a xlink:href="node__frontend_8h.html" target="_top" xlink:title=" ">
<polygon fill="white" stroke="#666666" points="1070,-321.5 912,-321.5 912,-302.5 1070,-302.5 1070,-321.5"/>
<text text-anchor="middle" x="991" y="-309.5" font-family="Helvetica,sans-Serif" font-size="10.00">src/node/rpc/node_frontend.h</text>
</a>
</g>
</g>
<!-- Node22&#45;&gt;Node25 -->
<g id="edge38" class="edge">
<title>Node22&#45;&gt;Node25</title>
<path fill="none" stroke="#63b8ff" d="M991,-358.08C991,-346.13 991,-331.22 991,-321.91"/>
<polygon fill="#63b8ff" stroke="#63b8ff" points="987.5,-358.37 991,-368.37 994.5,-358.37 987.5,-358.37"/>
</g>
<!-- Node26 -->
<g id="node26" class="node">
<title>Node26</title>
<g id="a_node26"><a xlink:href="user__frontend_8h.html" target="_top" xlink:title=" ">
<polygon fill="white" stroke="#666666" points="1167.5,-129 1012.5,-129 1012.5,-110 1167.5,-110 1167.5,-129"/>
<text text-anchor="middle" x="1090" y="-117" font-family="Helvetica,sans-Serif" font-size="10.00">src/node/rpc/user_frontend.h</text>
</a>
</g>
</g>
<!-- Node22&#45;&gt;Node26 -->
<g id="edge41" class="edge">
<title>Node22&#45;&gt;Node26</title>
<path fill="none" stroke="#63b8ff" d="M1040.82,-365.23C1061.51,-357.75 1083.74,-345.81 1097,-327 1138.62,-267.97 1125.14,-235.63 1110,-165 1107.19,-151.91 1100.23,-138.03 1095.32,-129.32"/>
<polygon fill="#63b8ff" stroke="#63b8ff" points="1039.53,-361.98 1031.15,-368.46 1041.74,-368.62 1039.53,-361.98"/>
</g>
<!-- Node23&#45;&gt;Node12 -->
<g id="edge33" class="edge">
<title>Node23&#45;&gt;Node12</title>
<path fill="none" stroke="#63b8ff" d="M859.06,-291.13C870.23,-283.15 881.6,-272.97 889,-261 928.08,-197.76 928.32,-102.85 927.4,-74.07"/>
<polygon fill="#63b8ff" stroke="#63b8ff" points="856.97,-288.32 850.62,-296.81 860.87,-294.13 856.97,-288.32"/>
</g>
<!-- Node23&#45;&gt;Node14 -->
<g id="edge34" class="edge">
<title>Node23&#45;&gt;Node14</title>
<path fill="none" stroke="#63b8ff" d="M770.54,-293.89C731.81,-281.5 681.1,-265.27 650.62,-255.52"/>
<polygon fill="#63b8ff" stroke="#63b8ff" points="769.52,-297.24 780.11,-296.95 771.65,-290.57 769.52,-297.24"/>
</g>
<!-- Node24&#45;&gt;Node12 -->
<g id="edge37" class="edge">
<title>Node24&#45;&gt;Node12</title>
<path fill="none" stroke="#63b8ff" d="M1019.25,-157.34C993.97,-132.18 953.48,-91.86 935.77,-74.23"/>
<polygon fill="#63b8ff" stroke="#63b8ff" points="1017.01,-160.05 1026.56,-164.63 1021.94,-155.09 1017.01,-160.05"/>
</g>
<!-- Node25&#45;&gt;Node12 -->
<g id="edge39" class="edge">
<title>Node25&#45;&gt;Node12</title>
<path fill="none" stroke="#63b8ff" d="M986.12,-292.29C973.2,-242.71 938.43,-109.36 929.25,-74.13"/>
<polygon fill="#63b8ff" stroke="#63b8ff" points="982.81,-293.47 988.72,-302.26 989.59,-291.7 982.81,-293.47"/>
</g>
<!-- Node25&#45;&gt;Node20 -->
<g id="edge40" class="edge">
<title>Node25&#45;&gt;Node20</title>
<path fill="none" stroke="#63b8ff" d="M957.8,-298.79C928.58,-288.04 886.04,-272.4 855.38,-261.12"/>
<polygon fill="#63b8ff" stroke="#63b8ff" points="956.94,-302.2 967.53,-302.37 959.36,-295.63 956.94,-302.2"/>
</g>
<!-- Node26&#45;&gt;Node12 -->
<g id="edge42" class="edge">
<title>Node26&#45;&gt;Node12</title>
<path fill="none" stroke="#63b8ff" d="M1054.01,-106.8C1023.59,-96.91 980.72,-82.97 953.39,-74.08"/>
<polygon fill="#63b8ff" stroke="#63b8ff" points="1053.22,-110.22 1063.81,-109.98 1055.38,-103.56 1053.22,-110.22"/>
</g>
</g>
</svg>
        <g id="navigator" transform="translate(0 0)" fill="#404254">
                <rect fill="#f2f5e9" fill-opacity="0.5" stroke="#606060" stroke-width=".5" x="0" y="0" width="60" height="60"/>
                <use id="zoomplus" xlink:href="#zoomPlus" x="17" y="9" onmousedown="handleZoom(evt,'in')"/>
                <use id="zoomminus" xlink:href="#zoomMin" x="42" y="9" onmousedown="handleZoom(evt,'out')"/>
                <use id="reset" xlink:href="#resetDef" x="30" y="36" onmousedown="handleReset()"/>
                <g id="arrowUp" xlink:href="#dirArrow" transform="translate(30 24)" onmousedown="handlePan(0,-1)">
                  <use xlink:href="#rim" fill="#404040">
                        <set attributeName="fill" to="#808080" begin="arrowUp.mouseover" end="arrowUp.mouseout"/>
                  </use>
                  <path fill="none" stroke="white" stroke-width="1.5" d="M0,-3.0v7 M-2.5,-0.5L0,-3.0L2.5,-0.5"/>
                </g>
                <g id="arrowRight" xlink:href="#dirArrow" transform="rotate(90) translate(36 -43)" onmousedown="handlePan(1,0)">
                  <use xlink:href="#rim" fill="#404040">
                        <set attributeName="fill" to="#808080" begin="arrowRight.mouseover" end="arrowRight.mouseout"/>
                  </use>
                  <path fill="none" stroke="white" stroke-width="1.5" d="M0,-3.0v7 M-2.5,-0.5L0,-3.0L2.5,-0.5"/>
                </g>
                <g id="arrowDown" xlink:href="#dirArrow" transform="rotate(180) translate(-30 -48)" onmousedown="handlePan(0,1)">
                  <use xlink:href="#rim" fill="#404040">
                        <set attributeName="fill" to="#808080" begin="arrowDown.mouseover" end="arrowDown.mouseout"/>
                  </use>
                  <path fill="none" stroke="white" stroke-width="1.5" d="M0,-3.0v7 M-2.5,-0.5L0,-3.0L2.5,-0.5"/>
                </g>
                <g id="arrowLeft" xlink:href="#dirArrow" transform="rotate(270) translate(-36 17)" onmousedown="handlePan(-1,0)">
                  <use xlink:href="#rim" fill="#404040">
                        <set attributeName="fill" to="#808080" begin="arrowLeft.mouseover" end="arrowLeft.mouseout"/>
                  </use>
                  <path fill="none" stroke="white" stroke-width="1.5" d="M0,-3.0v7 M-2.5,-0.5L0,-3.0L2.5,-0.5"/>
                </g>
        </g>
        <svg viewBox="0 0 15 15" width="100%" height="30px" preserveAspectRatio="xMaxYMin meet">
         <g id="arrow_out" transform="scale(0.3 0.3)">
          <a xlink:href="rpc__context__impl_8h__dep__incl_org.svg" target="_base">
           <rect id="button" ry="5" rx="5" y="6" x="6" height="38" width="38"
                fill="#f2f5e9" fill-opacity="0.5" stroke="#606060" stroke-width="1.0"/>
           <path id="arrow"
             d="M 11.500037,31.436501 C 11.940474,20.09759 22.043105,11.32322 32.158766,21.979434 L 37.068811,17.246167 C 37.068811,17.246167 37.088388,32 37.088388,32 L 22.160133,31.978069 C 22.160133,31.978069 26.997745,27.140456 26.997745,27.140456 C 18.528582,18.264221 13.291696,25.230495 11.500037,31.436501 z"
             style="fill:#404040;"/>
          </a>
         </g>
        </svg>
</svg>
