<?xml version="1.0" encoding="UTF-8" standalone="no"?>
<!DOCTYPE svg PUBLIC "-//W3C//DTD SVG 1.1//EN"
 "http://www.w3.org/Graphics/SVG/1.1/DTD/svg11.dtd">
<!-- Generated by graphviz version 2.43.0 (0)
 -->
<!-- Title: src/endpoints/grpc/grpc_status.h Pages: 1 -->
<svg width="1586pt" height="665pt"
 viewBox="0.00 0.00 1585.50 665.00" xmlns="http://www.w3.org/2000/svg" xmlns:xlink="http://www.w3.org/1999/xlink">
<g id="graph0" class="graph" transform="scale(1 1) rotate(0) translate(4 661)">
<title>src/endpoints/grpc/grpc_status.h</title>
<!-- Node1 -->
<g id="node1" class="node">
<title>Node1</title>
<g id="a_node1"><a xlink:title=" ">
<polygon fill="#999999" stroke="#666666" points="554,-657 448,-657 448,-627 554,-627 554,-657"/>
<text text-anchor="start" x="456" y="-645" font-family="Helvetica,sans-Serif" font-size="10.00">src/endpoints/grpc</text>
<text text-anchor="middle" x="501" y="-634" font-family="Helvetica,sans-Serif" font-size="10.00">/grpc_status.h</text>
</a>
</g>
</g>
<!-- Node2 -->
<g id="node2" class="node">
<title>Node2</title>
<g id="a_node2"><a xlink:href="status_8h.html" target="_top" xlink:title=" ">
<polygon fill="white" stroke="#666666" points="206,-591 100,-591 100,-561 206,-561 206,-591"/>
<text text-anchor="start" x="108" y="-579" font-family="Helvetica,sans-Serif" font-size="10.00">src/endpoints/grpc</text>
<text text-anchor="middle" x="153" y="-568" font-family="Helvetica,sans-Serif" font-size="10.00">/status.h</text>
</a>
</g>
</g>
<!-- Node1&#45;&gt;Node2 -->
<g id="edge1" class="edge">
<title>Node1&#45;&gt;Node2</title>
<path fill="none" stroke="#63b8ff" d="M437.86,-629.39C371.58,-617.2 268.52,-598.25 206.23,-586.79"/>
<polygon fill="#63b8ff" stroke="#63b8ff" points="437.3,-632.84 447.77,-631.21 438.57,-625.96 437.3,-632.84"/>
</g>
<!-- Node11 -->
<g id="node11" class="node">
<title>Node11</title>
<g id="a_node11"><a xlink:href="frontend_8h.html" target="_top" xlink:title=" ">
<polygon fill="white" stroke="#666666" points="1221.5,-387.5 1092.5,-387.5 1092.5,-368.5 1221.5,-368.5 1221.5,-387.5"/>
<text text-anchor="middle" x="1157" y="-375.5" font-family="Helvetica,sans-Serif" font-size="10.00">src/node/rpc/frontend.h</text>
</a>
</g>
</g>
<!-- Node1&#45;&gt;Node11 -->
<g id="edge15" class="edge">
<title>Node1&#45;&gt;Node11</title>
<path fill="none" stroke="#63b8ff" d="M564.14,-626.15C666.07,-600.71 871.45,-543.22 1030,-459 1073.72,-435.77 1122.5,-402.96 1144.75,-387.58"/>
<polygon fill="#63b8ff" stroke="#63b8ff" points="563.17,-622.79 554.31,-628.59 564.86,-629.58 563.17,-622.79"/>
</g>
<!-- Node22 -->
<g id="node22" class="node">
<title>Node22</title>
<g id="a_node22"><a xlink:href="rpc__context__impl_8h.html" target="_top" xlink:title=" ">
<polygon fill="white" stroke="#666666" points="569,-591 433,-591 433,-561 569,-561 569,-591"/>
<text text-anchor="start" x="441" y="-579" font-family="Helvetica,sans-Serif" font-size="10.00">src/node/rpc/rpc_context</text>
<text text-anchor="middle" x="501" y="-568" font-family="Helvetica,sans-Serif" font-size="10.00">_impl.h</text>
</a>
</g>
</g>
<!-- Node1&#45;&gt;Node22 -->
<g id="edge33" class="edge">
<title>Node1&#45;&gt;Node22</title>
<path fill="none" stroke="#63b8ff" d="M501,-616.54C501,-607.96 501,-598.61 501,-591.16"/>
<polygon fill="#63b8ff" stroke="#63b8ff" points="497.5,-616.8 501,-626.8 504.5,-616.8 497.5,-616.8"/>
</g>
<!-- Node3 -->
<g id="node3" class="node">
<title>Node3</title>
<g id="a_node3"><a xlink:href="executor__code__id_8h.html" target="_top" xlink:title=" ">
<polygon fill="white" stroke="#666666" points="386,-459 238,-459 238,-429 386,-429 386,-459"/>
<text text-anchor="start" x="246" y="-447" font-family="Helvetica,sans-Serif" font-size="10.00">src/apps/external_executor</text>
<text text-anchor="middle" x="312" y="-436" font-family="Helvetica,sans-Serif" font-size="10.00">/executor_code_id.h</text>
</a>
</g>
</g>
<!-- Node2&#45;&gt;Node3 -->
<g id="edge2" class="edge">
<title>Node2&#45;&gt;Node3</title>
<path fill="none" stroke="#63b8ff" d="M178.47,-554.18C211.06,-527.53 266.64,-482.09 294.7,-459.14"/>
<polygon fill="#63b8ff" stroke="#63b8ff" points="175.84,-551.8 170.32,-560.84 180.28,-557.22 175.84,-551.8"/>
</g>
<!-- Node8 -->
<g id="node8" class="node">
<title>Node8</title>
<g id="a_node8"><a xlink:href="stream_8h.html" target="_top" xlink:title=" ">
<polygon fill="white" stroke="#666666" points="182,-459 76,-459 76,-429 182,-429 182,-459"/>
<text text-anchor="start" x="84" y="-447" font-family="Helvetica,sans-Serif" font-size="10.00">src/endpoints/grpc</text>
<text text-anchor="middle" x="129" y="-436" font-family="Helvetica,sans-Serif" font-size="10.00">/stream.h</text>
</a>
</g>
</g>
<!-- Node2&#45;&gt;Node8 -->
<g id="edge9" class="edge">
<title>Node2&#45;&gt;Node8</title>
<path fill="none" stroke="#63b8ff" d="M148.51,-550.68C143.53,-523.7 135.67,-481.11 131.61,-459.14"/>
<polygon fill="#63b8ff" stroke="#63b8ff" points="145.13,-551.64 150.39,-560.84 152.01,-550.37 145.13,-551.64"/>
</g>
<!-- Node10 -->
<g id="node10" class="node">
<title>Node10</title>
<g id="a_node10"><a xlink:href="types_8h.html" target="_top" xlink:title=" ">
<polygon fill="white" stroke="#666666" points="106,-525 0,-525 0,-495 106,-495 106,-525"/>
<text text-anchor="start" x="8" y="-513" font-family="Helvetica,sans-Serif" font-size="10.00">src/endpoints/grpc</text>
<text text-anchor="middle" x="53" y="-502" font-family="Helvetica,sans-Serif" font-size="10.00">/types.h</text>
</a>
</g>
</g>
<!-- Node2&#45;&gt;Node10 -->
<g id="edge12" class="edge">
<title>Node2&#45;&gt;Node10</title>
<path fill="none" stroke="#63b8ff" d="M122.22,-555.3C107,-545.56 88.97,-534.02 75.13,-525.16"/>
<polygon fill="#63b8ff" stroke="#63b8ff" points="120.5,-558.35 130.81,-560.8 124.27,-552.46 120.5,-558.35"/>
</g>
<!-- Node4 -->
<g id="node4" class="node">
<title>Node4</title>
<g id="a_node4"><a xlink:href="executor__auth__policy_8h.html" target="_top" xlink:title=" ">
<polygon fill="white" stroke="#666666" points="348,-393 200,-393 200,-363 348,-363 348,-393"/>
<text text-anchor="start" x="208" y="-381" font-family="Helvetica,sans-Serif" font-size="10.00">src/apps/external_executor</text>
<text text-anchor="middle" x="274" y="-370" font-family="Helvetica,sans-Serif" font-size="10.00">/executor_auth_policy.h</text>
</a>
</g>
</g>
<!-- Node3&#45;&gt;Node4 -->
<g id="edge3" class="edge">
<title>Node3&#45;&gt;Node4</title>
<path fill="none" stroke="#63b8ff" d="M298.32,-419.96C293,-411 287.08,-401.03 282.41,-393.16"/>
<polygon fill="#63b8ff" stroke="#63b8ff" points="295.45,-421.98 303.57,-428.8 301.47,-418.41 295.45,-421.98"/>
</g>
<!-- Node5 -->
<g id="node5" class="node">
<title>Node5</title>
<g id="a_node5"><a xlink:href="external__executor_8cpp.html" target="_top" xlink:title=" ">
<polygon fill="white" stroke="#666666" points="450,-261 302,-261 302,-231 450,-231 450,-261"/>
<text text-anchor="start" x="310" y="-249" font-family="Helvetica,sans-Serif" font-size="10.00">src/apps/external_executor</text>
<text text-anchor="middle" x="376" y="-238" font-family="Helvetica,sans-Serif" font-size="10.00">/external_executor.cpp</text>
</a>
</g>
</g>
<!-- Node3&#45;&gt;Node5 -->
<g id="edge8" class="edge">
<title>Node3&#45;&gt;Node5</title>
<path fill="none" stroke="#63b8ff" d="M336.92,-421.13C344.58,-413.06 352.24,-403.34 357,-393 377.62,-348.18 377.95,-287.96 376.86,-261.03"/>
<polygon fill="#63b8ff" stroke="#63b8ff" points="334.01,-419.09 329.36,-428.61 338.93,-424.06 334.01,-419.09"/>
</g>
<!-- Node4&#45;&gt;Node5 -->
<g id="edge4" class="edge">
<title>Node4&#45;&gt;Node5</title>
<path fill="none" stroke="#63b8ff" d="M291.42,-354.8C312.45,-327.99 347.21,-283.7 364.9,-261.14"/>
<polygon fill="#63b8ff" stroke="#63b8ff" points="288.53,-352.81 285.11,-362.84 294.04,-357.13 288.53,-352.81"/>
</g>
<!-- Node6 -->
<g id="node6" class="node">
<title>Node6</title>
<g id="a_node6"><a xlink:href="external__executor__indexing_8h.html" target="_top" xlink:title=" ">
<polygon fill="white" stroke="#666666" points="294,-327 130,-327 130,-297 294,-297 294,-327"/>
<text text-anchor="start" x="138" y="-315" font-family="Helvetica,sans-Serif" font-size="10.00">src/apps/external_executor</text>
<text text-anchor="middle" x="212" y="-304" font-family="Helvetica,sans-Serif" font-size="10.00">/external_executor_indexing.h</text>
</a>
</g>
</g>
<!-- Node4&#45;&gt;Node6 -->
<g id="edge5" class="edge">
<title>Node4&#45;&gt;Node6</title>
<path fill="none" stroke="#63b8ff" d="M253.04,-355.37C244.03,-346.06 233.74,-335.44 225.72,-327.16"/>
<polygon fill="#63b8ff" stroke="#63b8ff" points="250.77,-358.05 260.24,-362.8 255.8,-353.18 250.77,-358.05"/>
</g>
<!-- Node6&#45;&gt;Node5 -->
<g id="edge6" class="edge">
<title>Node6&#45;&gt;Node5</title>
<path fill="none" stroke="#63b8ff" d="M257.64,-293.19C283.69,-283.02 315.87,-270.47 340.09,-261.01"/>
<polygon fill="#63b8ff" stroke="#63b8ff" points="256.03,-290.06 247.99,-296.95 258.58,-296.58 256.03,-290.06"/>
</g>
<!-- Node7 -->
<g id="node7" class="node">
<title>Node7</title>
<g id="a_node7"><a xlink:href="external__executor__indexing_8cpp.html" target="_top" xlink:title=" ">
<polygon fill="white" stroke="#666666" points="283.5,-261 108.5,-261 108.5,-231 283.5,-231 283.5,-261"/>
<text text-anchor="start" x="116.5" y="-249" font-family="Helvetica,sans-Serif" font-size="10.00">src/apps/external_executor</text>
<text text-anchor="middle" x="196" y="-238" font-family="Helvetica,sans-Serif" font-size="10.00">/external_executor_indexing.cpp</text>
</a>
</g>
</g>
<!-- Node6&#45;&gt;Node7 -->
<g id="edge7" class="edge">
<title>Node6&#45;&gt;Node7</title>
<path fill="none" stroke="#63b8ff" d="M205.96,-286.83C203.79,-278.17 201.42,-268.7 199.54,-261.16"/>
<polygon fill="#63b8ff" stroke="#63b8ff" points="202.63,-287.94 208.45,-296.8 209.42,-286.25 202.63,-287.94"/>
</g>
<!-- Node9 -->
<g id="node9" class="node">
<title>Node9</title>
<g id="a_node9"><a xlink:href="grpc_8h.html" target="_top" xlink:title=" ">
<polygon fill="white" stroke="#666666" points="182,-393 76,-393 76,-363 182,-363 182,-393"/>
<text text-anchor="start" x="84" y="-381" font-family="Helvetica,sans-Serif" font-size="10.00">src/endpoints/grpc</text>
<text text-anchor="middle" x="129" y="-370" font-family="Helvetica,sans-Serif" font-size="10.00">/grpc.h</text>
</a>
</g>
</g>
<!-- Node8&#45;&gt;Node9 -->
<g id="edge10" class="edge">
<title>Node8&#45;&gt;Node9</title>
<path fill="none" stroke="#63b8ff" d="M129,-418.54C129,-409.96 129,-400.61 129,-393.16"/>
<polygon fill="#63b8ff" stroke="#63b8ff" points="125.5,-418.8 129,-428.8 132.5,-418.8 125.5,-418.8"/>
</g>
<!-- Node9&#45;&gt;Node6 -->
<g id="edge11" class="edge">
<title>Node9&#45;&gt;Node6</title>
<path fill="none" stroke="#63b8ff" d="M155.61,-356.48C168.02,-346.91 182.47,-335.77 193.63,-327.16"/>
<polygon fill="#63b8ff" stroke="#63b8ff" points="153.2,-353.92 147.42,-362.8 157.48,-359.46 153.2,-353.92"/>
</g>
<!-- Node10&#45;&gt;Node8 -->
<g id="edge14" class="edge">
<title>Node10&#45;&gt;Node8</title>
<path fill="none" stroke="#63b8ff" d="M77.7,-488.2C88.98,-478.7 102.05,-467.69 112.18,-459.16"/>
<polygon fill="#63b8ff" stroke="#63b8ff" points="75.26,-485.68 69.87,-494.8 79.77,-491.03 75.26,-485.68"/>
</g>
<!-- Node10&#45;&gt;Node9 -->
<g id="edge13" class="edge">
<title>Node10&#45;&gt;Node9</title>
<path fill="none" stroke="#63b8ff" d="M52.85,-484.89C53.75,-468.16 57.01,-445.94 67,-429 75.78,-414.11 90.77,-401.84 103.81,-393.18"/>
<polygon fill="#63b8ff" stroke="#63b8ff" points="49.35,-484.87 52.56,-494.97 56.35,-485.08 49.35,-484.87"/>
</g>
<!-- Node12 -->
<g id="node12" class="node">
<title>Node12</title>
<g id="a_node12"><a xlink:href="acme__challenge__frontend_8h.html" target="_top" xlink:title=" ">
<polygon fill="white" stroke="#666666" points="1060,-327 920,-327 920,-297 1060,-297 1060,-327"/>
<text text-anchor="start" x="928" y="-315" font-family="Helvetica,sans-Serif" font-size="10.00">src/node/acme_challenge</text>
<text text-anchor="middle" x="990" y="-304" font-family="Helvetica,sans-Serif" font-size="10.00">_frontend.h</text>
</a>
</g>
</g>
<!-- Node11&#45;&gt;Node12 -->
<g id="edge16" class="edge">
<title>Node11&#45;&gt;Node12</title>
<path fill="none" stroke="#63b8ff" d="M1125.13,-364.79C1097.09,-354.04 1056.27,-338.4 1026.83,-327.12"/>
<polygon fill="#63b8ff" stroke="#63b8ff" points="1123.89,-368.06 1134.48,-368.37 1126.39,-361.52 1123.89,-368.06"/>
</g>
<!-- Node16 -->
<g id="node16" class="node">
<title>Node16</title>
<g id="a_node16"><a xlink:href="node__state_8h.html" target="_top" xlink:title=" ">
<polygon fill="white" stroke="#666666" points="1082,-189.5 958,-189.5 958,-170.5 1082,-170.5 1082,-189.5"/>
<text text-anchor="middle" x="1020" y="-177.5" font-family="Helvetica,sans-Serif" font-size="10.00">src/node/node_state.h</text>
</a>
</g>
</g>
<!-- Node11&#45;&gt;Node16 -->
<g id="edge24" class="edge">
<title>Node11&#45;&gt;Node16</title>
<path fill="none" stroke="#63b8ff" d="M1197.38,-364.56C1215.3,-356.8 1234.63,-344.81 1245,-327 1255.96,-308.18 1246.52,-242.54 1236,-231 1215.57,-208.6 1138.52,-194.84 1082.25,-187.56"/>
<polygon fill="#63b8ff" stroke="#63b8ff" points="1195.63,-361.49 1187.64,-368.44 1198.23,-367.99 1195.63,-361.49"/>
</g>
<!-- Node18 -->
<g id="node18" class="node">
<title>Node18</title>
<g id="a_node18"><a xlink:href="member__frontend_8h.html" target="_top" xlink:title=" ">
<polygon fill="white" stroke="#666666" points="1480,-195 1360,-195 1360,-165 1480,-165 1480,-195"/>
<text text-anchor="start" x="1368" y="-183" font-family="Helvetica,sans-Serif" font-size="10.00">src/node/rpc/member</text>
<text text-anchor="middle" x="1420" y="-172" font-family="Helvetica,sans-Serif" font-size="10.00">_frontend.h</text>
</a>
</g>
</g>
<!-- Node11&#45;&gt;Node18 -->
<g id="edge25" class="edge">
<title>Node11&#45;&gt;Node18</title>
<path fill="none" stroke="#63b8ff" d="M1187.48,-364.4C1208.7,-355.13 1237.32,-341.65 1261,-327 1301.67,-301.83 1310.75,-293.33 1346,-261 1369.42,-239.51 1393.97,-211.78 1408.08,-195.24"/>
<polygon fill="#63b8ff" stroke="#63b8ff" points="1185.81,-361.3 1178.01,-368.47 1188.57,-367.73 1185.81,-361.3"/>
</g>
<!-- Node19 -->
<g id="node19" class="node">
<title>Node19</title>
<g id="a_node19"><a xlink:href="node__frontend_8h.html" target="_top" xlink:title=" ">
<polygon fill="white" stroke="#666666" points="1236,-321.5 1078,-321.5 1078,-302.5 1236,-302.5 1236,-321.5"/>
<text text-anchor="middle" x="1157" y="-309.5" font-family="Helvetica,sans-Serif" font-size="10.00">src/node/rpc/node_frontend.h</text>
</a>
</g>
</g>
<!-- Node11&#45;&gt;Node19 -->
<g id="edge27" class="edge">
<title>Node11&#45;&gt;Node19</title>
<path fill="none" stroke="#63b8ff" d="M1157,-358.08C1157,-346.13 1157,-331.22 1157,-321.91"/>
<polygon fill="#63b8ff" stroke="#63b8ff" points="1153.5,-358.37 1157,-368.37 1160.5,-358.37 1153.5,-358.37"/>
</g>
<!-- Node21 -->
<g id="node21" class="node">
<title>Node21</title>
<g id="a_node21"><a xlink:href="user__frontend_8h.html" target="_top" xlink:title=" ">
<polygon fill="white" stroke="#666666" points="1577.5,-129 1422.5,-129 1422.5,-110 1577.5,-110 1577.5,-129"/>
<text text-anchor="middle" x="1500" y="-117" font-family="Helvetica,sans-Serif" font-size="10.00">src/node/rpc/user_frontend.h</text>
</a>
</g>
</g>
<!-- Node11&#45;&gt;Node21 -->
<g id="edge31" class="edge">
<title>Node11&#45;&gt;Node21</title>
<path fill="none" stroke="#63b8ff" d="M1206.7,-366.01C1282.56,-346.32 1425.14,-297.15 1489,-195 1502.03,-174.16 1501.85,-143.75 1500.84,-129.07"/>
<polygon fill="#63b8ff" stroke="#63b8ff" points="1205.74,-362.64 1196.9,-368.49 1207.45,-369.43 1205.74,-362.64"/>
</g>
<!-- Node13 -->
<g id="node13" class="node">
<title>Node13</title>
<g id="a_node13"><a xlink:href="src_2enclave_2enclave_8h.html" target="_top" xlink:title=" ">
<polygon fill="white" stroke="#666666" points="1336,-74 1214,-74 1214,-55 1336,-55 1336,-74"/>
<text text-anchor="middle" x="1275" y="-62" font-family="Helvetica,sans-Serif" font-size="10.00">src/enclave/enclave.h</text>
</a>
</g>
</g>
<!-- Node12&#45;&gt;Node13 -->
<g id="edge17" class="edge">
<title>Node12&#45;&gt;Node13</title>
<path fill="none" stroke="#63b8ff" d="M1070.52,-295.71C1141.1,-282.14 1232.96,-264.01 1236,-261 1289.33,-208.12 1280.27,-104.42 1276.27,-74.05"/>
<polygon fill="#63b8ff" stroke="#63b8ff" points="1069.43,-292.35 1060.27,-297.68 1070.75,-299.23 1069.43,-292.35"/>
</g>
<!-- Node15 -->
<g id="node15" class="node">
<title>Node15</title>
<g id="a_node15"><a xlink:href="ccf__acme__client_8h.html" target="_top" xlink:title=" ">
<polygon fill="white" stroke="#666666" points="1084.5,-255.5 935.5,-255.5 935.5,-236.5 1084.5,-236.5 1084.5,-255.5"/>
<text text-anchor="middle" x="1010" y="-243.5" font-family="Helvetica,sans-Serif" font-size="10.00">src/node/ccf_acme_client.h</text>
</a>
</g>
</g>
<!-- Node12&#45;&gt;Node15 -->
<g id="edge19" class="edge">
<title>Node12&#45;&gt;Node15</title>
<path fill="none" stroke="#63b8ff" d="M997.52,-286.94C1000.92,-276.06 1004.73,-263.86 1007.24,-255.84"/>
<polygon fill="#63b8ff" stroke="#63b8ff" points="994.08,-286.21 994.44,-296.8 1000.76,-288.3 994.08,-286.21"/>
</g>
<!-- Node14 -->
<g id="node14" class="node">
<title>Node14</title>
<g id="a_node14"><a xlink:href="enclave_2main_8cpp.html" target="_top" xlink:title=" ">
<polygon fill="white" stroke="#666666" points="1335,-19 1215,-19 1215,0 1335,0 1335,-19"/>
<text text-anchor="middle" x="1275" y="-7" font-family="Helvetica,sans-Serif" font-size="10.00">src/enclave/main.cpp</text>
</a>
</g>
</g>
<!-- Node13&#45;&gt;Node14 -->
<g id="edge18" class="edge">
<title>Node13&#45;&gt;Node14</title>
<path fill="none" stroke="#63b8ff" d="M1275,-44.66C1275,-35.93 1275,-25.99 1275,-19.09"/>
<polygon fill="#63b8ff" stroke="#63b8ff" points="1271.5,-44.75 1275,-54.75 1278.5,-44.75 1271.5,-44.75"/>
</g>
<!-- Node15&#45;&gt;Node16 -->
<g id="edge20" class="edge">
<title>Node15&#45;&gt;Node16</title>
<path fill="none" stroke="#63b8ff" d="M1012.9,-226.45C1014.78,-214.43 1017.14,-199.32 1018.61,-189.91"/>
<polygon fill="#63b8ff" stroke="#63b8ff" points="1009.43,-225.95 1011.35,-236.37 1016.35,-227.03 1009.43,-225.95"/>
</g>
<!-- Node16&#45;&gt;Node13 -->
<g id="edge21" class="edge">
<title>Node16&#45;&gt;Node13</title>
<path fill="none" stroke="#63b8ff" d="M1034.75,-162.95C1050.09,-147.2 1075.52,-123.64 1102,-110 1137.43,-91.75 1180.88,-80.61 1215.37,-74.04"/>
<polygon fill="#63b8ff" stroke="#63b8ff" points="1032.05,-160.71 1027.7,-170.37 1037.13,-165.53 1032.05,-160.71"/>
</g>
<!-- Node17 -->
<g id="node17" class="node">
<title>Node17</title>
<g id="a_node17"><a xlink:href="gov__effects_8h.html" target="_top" xlink:title=" ">
<polygon fill="white" stroke="#666666" points="1255,-129 1111,-129 1111,-110 1255,-110 1255,-129"/>
<text text-anchor="middle" x="1183" y="-117" font-family="Helvetica,sans-Serif" font-size="10.00">src/node/rpc/gov_effects.h</text>
</a>
</g>
</g>
<!-- Node16&#45;&gt;Node17 -->
<g id="edge22" class="edge">
<title>Node16&#45;&gt;Node17</title>
<path fill="none" stroke="#63b8ff" d="M1053.37,-167.02C1084.88,-155.71 1131.37,-139.03 1159.27,-129.02"/>
<polygon fill="#63b8ff" stroke="#63b8ff" points="1051.93,-163.82 1043.7,-170.49 1054.3,-170.41 1051.93,-163.82"/>
</g>
<!-- Node17&#45;&gt;Node13 -->
<g id="edge23" class="edge">
<title>Node17&#45;&gt;Node13</title>
<path fill="none" stroke="#63b8ff" d="M1206.49,-104.97C1223.31,-95.28 1245.45,-82.52 1259.95,-74.17"/>
<polygon fill="#63b8ff" stroke="#63b8ff" points="1204.7,-101.96 1197.78,-109.98 1208.19,-108.03 1204.7,-101.96"/>
</g>
<!-- Node18&#45;&gt;Node13 -->
<g id="edge26" class="edge">
<title>Node18&#45;&gt;Node13</title>
<path fill="none" stroke="#63b8ff" d="M1399.17,-157.54C1384.84,-143.31 1365.04,-124.63 1346,-110 1327.89,-96.08 1305.29,-82.5 1290.52,-74.07"/>
<polygon fill="#63b8ff" stroke="#63b8ff" points="1396.99,-160.31 1406.52,-164.94 1401.95,-155.38 1396.99,-160.31"/>
</g>
<!-- Node19&#45;&gt;Node13 -->
<g id="edge28" class="edge">
<title>Node19&#45;&gt;Node13</title>
<path fill="none" stroke="#63b8ff" d="M1210.54,-300.2C1249.07,-291.21 1296.24,-277.29 1308,-261 1347.29,-206.6 1329.05,-173.72 1308,-110 1303.29,-95.75 1292.07,-82.34 1284.02,-74.04"/>
<polygon fill="#63b8ff" stroke="#63b8ff" points="1209.43,-296.86 1200.45,-302.49 1210.98,-303.69 1209.43,-296.86"/>
</g>
<!-- Node20 -->
<g id="node20" class="node">
<title>Node20</title>
<g id="a_node20"><a xlink:href="jwt__key__auto__refresh_8h.html" target="_top" xlink:title=" ">
<polygon fill="white" stroke="#666666" points="1227.5,-261 1102.5,-261 1102.5,-231 1227.5,-231 1227.5,-261"/>
<text text-anchor="start" x="1110.5" y="-249" font-family="Helvetica,sans-Serif" font-size="10.00">src/node/jwt_key_auto</text>
<text text-anchor="middle" x="1165" y="-238" font-family="Helvetica,sans-Serif" font-size="10.00">_refresh.h</text>
</a>
</g>
</g>
<!-- Node19&#45;&gt;Node20 -->
<g id="edge29" class="edge">
<title>Node19&#45;&gt;Node20</title>
<path fill="none" stroke="#63b8ff" d="M1159.33,-292.35C1160.57,-282.47 1162.06,-270.51 1163.2,-261.36"/>
<polygon fill="#63b8ff" stroke="#63b8ff" points="1155.85,-292.01 1158.08,-302.37 1162.79,-292.88 1155.85,-292.01"/>
</g>
<!-- Node20&#45;&gt;Node16 -->
<g id="edge30" class="edge">
<title>Node20&#45;&gt;Node16</title>
<path fill="none" stroke="#63b8ff" d="M1123.72,-226.78C1096,-214.54 1060.74,-198.98 1039.3,-189.52"/>
<polygon fill="#63b8ff" stroke="#63b8ff" points="1122.62,-230.12 1133.18,-230.95 1125.44,-223.71 1122.62,-230.12"/>
</g>
<!-- Node21&#45;&gt;Node13 -->
<g id="edge32" class="edge">
<title>Node21&#45;&gt;Node13</title>
<path fill="none" stroke="#63b8ff" d="M1454.11,-107.69C1411.95,-97.76 1350.3,-83.24 1311.43,-74.08"/>
<polygon fill="#63b8ff" stroke="#63b8ff" points="1453.31,-111.1 1463.85,-109.98 1454.92,-104.28 1453.31,-111.1"/>
</g>
<!-- Node22&#45;&gt;Node5 -->
<g id="edge34" class="edge">
<title>Node22&#45;&gt;Node5</title>
<path fill="none" stroke="#63b8ff" d="M464.96,-555.48C453.18,-547.47 441.07,-537.19 433,-525 412.82,-494.53 414,-481.54 414,-445 414,-445 414,-445 414,-377 414,-333.26 393.94,-284.46 382.97,-261.03"/>
<polygon fill="#63b8ff" stroke="#63b8ff" points="463.1,-558.45 473.41,-560.91 466.89,-552.56 463.1,-558.45"/>
</g>
<!-- Node22&#45;&gt;Node9 -->
<g id="edge37" class="edge">
<title>Node22&#45;&gt;Node9</title>
<path fill="none" stroke="#63b8ff" d="M448.52,-557.45C392.2,-537.52 301.12,-502.12 229,-459 226.77,-457.67 174.44,-415.59 146.39,-393.01"/>
<polygon fill="#63b8ff" stroke="#63b8ff" points="447.68,-560.86 458.28,-560.87 450,-554.25 447.68,-560.86"/>
</g>
<!-- Node23 -->
<g id="node23" class="node">
<title>Node23</title>
<g id="a_node23"><a xlink:href="js__generic__base_8cpp.html" target="_top" xlink:title=" ">
<polygon fill="white" stroke="#666666" points="560,-525 442,-525 442,-495 560,-495 560,-525"/>
<text text-anchor="start" x="450" y="-513" font-family="Helvetica,sans-Serif" font-size="10.00">src/apps/js_generic</text>
<text text-anchor="middle" x="501" y="-502" font-family="Helvetica,sans-Serif" font-size="10.00">/js_generic_base.cpp</text>
</a>
</g>
</g>
<!-- Node22&#45;&gt;Node23 -->
<g id="edge35" class="edge">
<title>Node22&#45;&gt;Node23</title>
<path fill="none" stroke="#63b8ff" d="M501,-550.54C501,-541.96 501,-532.61 501,-525.16"/>
<polygon fill="#63b8ff" stroke="#63b8ff" points="497.5,-550.8 501,-560.8 504.5,-550.8 497.5,-550.8"/>
</g>
<!-- Node24 -->
<g id="node24" class="node">
<title>Node24</title>
<g id="a_node24"><a xlink:href="endpoint__registry_8cpp.html" target="_top" xlink:title=" ">
<polygon fill="white" stroke="#666666" points="706,-525 578,-525 578,-495 706,-495 706,-525"/>
<text text-anchor="start" x="586" y="-513" font-family="Helvetica,sans-Serif" font-size="10.00">src/endpoints/endpoint</text>
<text text-anchor="middle" x="642" y="-502" font-family="Helvetica,sans-Serif" font-size="10.00">_registry.cpp</text>
</a>
</g>
</g>
<!-- Node22&#45;&gt;Node24 -->
<g id="edge36" class="edge">
<title>Node22&#45;&gt;Node24</title>
<path fill="none" stroke="#63b8ff" d="M541.13,-556.78C563.36,-546.69 590.57,-534.34 611.13,-525.01"/>
<polygon fill="#63b8ff" stroke="#63b8ff" points="539.6,-553.63 531.94,-560.95 542.5,-560.01 539.6,-553.63"/>
</g>
<!-- Node25 -->
<g id="node25" class="node">
<title>Node25</title>
<g id="a_node25"><a xlink:href="http__rpc__context_8h.html" target="_top" xlink:title=" ">
<polygon fill="white" stroke="#666666" points="871.5,-519.5 724.5,-519.5 724.5,-500.5 871.5,-500.5 871.5,-519.5"/>
<text text-anchor="middle" x="798" y="-507.5" font-family="Helvetica,sans-Serif" font-size="10.00">src/http/http_rpc_context.h</text>
</a>
</g>
</g>
<!-- Node22&#45;&gt;Node25 -->
<g id="edge38" class="edge">
<title>Node22&#45;&gt;Node25</title>
<path fill="none" stroke="#63b8ff" d="M576.04,-558.83C634.05,-546.33 712.06,-529.52 758.47,-519.52"/>
<polygon fill="#63b8ff" stroke="#63b8ff" points="575.22,-555.43 566.18,-560.95 576.69,-562.27 575.22,-555.43"/>
</g>
<!-- Node25&#45;&gt;Node20 -->
<g id="edge52" class="edge">
<title>Node25&#45;&gt;Node20</title>
<path fill="none" stroke="#63b8ff" d="M813.49,-492.99C822.03,-483.6 832.41,-471.21 840,-459 881.48,-392.22 849.68,-346.19 911,-297 911.47,-296.62 1027.3,-273.92 1102.36,-259.24"/>
<polygon fill="#63b8ff" stroke="#63b8ff" points="810.85,-490.69 806.57,-500.39 815.96,-495.47 810.85,-490.69"/>
</g>
<!-- Node26 -->
<g id="node26" class="node">
<title>Node26</title>
<g id="a_node26"><a xlink:href="http2__parser_8h.html" target="_top" xlink:title=" ">
<polygon fill="white" stroke="#666666" points="831,-453.5 705,-453.5 705,-434.5 831,-434.5 831,-453.5"/>
<text text-anchor="middle" x="768" y="-441.5" font-family="Helvetica,sans-Serif" font-size="10.00">src/http/http2_parser.h</text>
</a>
</g>
</g>
<!-- Node25&#45;&gt;Node26 -->
<g id="edge39" class="edge">
<title>Node25&#45;&gt;Node26</title>
<path fill="none" stroke="#63b8ff" d="M789.65,-491.18C783.96,-479.05 776.68,-463.51 772.17,-453.91"/>
<polygon fill="#63b8ff" stroke="#63b8ff" points="786.54,-492.8 793.95,-500.37 792.88,-489.83 786.54,-492.8"/>
</g>
<!-- Node27 -->
<g id="node27" class="node">
<title>Node27</title>
<g id="a_node27"><a xlink:href="http2__session_8h.html" target="_top" xlink:title=" ">
<polygon fill="white" stroke="#666666" points="743.5,-387.5 610.5,-387.5 610.5,-368.5 743.5,-368.5 743.5,-387.5"/>
<text text-anchor="middle" x="677" y="-375.5" font-family="Helvetica,sans-Serif" font-size="10.00">src/http/http2_session.h</text>
</a>
</g>
</g>
<!-- Node25&#45;&gt;Node27 -->
<g id="edge49" class="edge">
<title>Node25&#45;&gt;Node27</title>
<path fill="none" stroke="#63b8ff" d="M754.28,-497.15C733.77,-489.46 710.67,-477.36 696,-459 678.98,-437.7 676.78,-403.65 676.76,-387.73"/>
<polygon fill="#63b8ff" stroke="#63b8ff" points="753.2,-500.47 763.79,-500.48 755.51,-493.87 753.2,-500.47"/>
</g>
<!-- Node31 -->
<g id="node31" class="node">
<title>Node31</title>
<g id="a_node31"><a xlink:href="http__session_8h.html" target="_top" xlink:title=" ">
<polygon fill="white" stroke="#666666" points="592.5,-387.5 465.5,-387.5 465.5,-368.5 592.5,-368.5 592.5,-387.5"/>
<text text-anchor="middle" x="529" y="-375.5" font-family="Helvetica,sans-Serif" font-size="10.00">src/http/http_session.h</text>
</a>
</g>
</g>
<!-- Node25&#45;&gt;Node31 -->
<g id="edge50" class="edge">
<title>Node25&#45;&gt;Node31</title>
<path fill="none" stroke="#63b8ff" d="M766.12,-496.7C741.72,-487.06 707.38,-472.97 678,-459 627.88,-435.17 570.55,-402.92 543.98,-387.68"/>
<polygon fill="#63b8ff" stroke="#63b8ff" points="765.01,-500.03 775.6,-500.43 767.57,-493.51 765.01,-500.03"/>
</g>
<!-- Node32 -->
<g id="node32" class="node">
<title>Node32</title>
<g id="a_node32"><a xlink:href="forwarder_8h.html" target="_top" xlink:title=" ">
<polygon fill="white" stroke="#666666" points="1021,-453.5 887,-453.5 887,-434.5 1021,-434.5 1021,-453.5"/>
<text text-anchor="middle" x="954" y="-441.5" font-family="Helvetica,sans-Serif" font-size="10.00">src/node/rpc/forwarder.h</text>
</a>
</g>
</g>
<!-- Node25&#45;&gt;Node32 -->
<g id="edge53" class="edge">
<title>Node25&#45;&gt;Node32</title>
<path fill="none" stroke="#63b8ff" d="M828.44,-496.51C859.28,-483.86 906.15,-464.63 933.05,-453.6"/>
<polygon fill="#63b8ff" stroke="#63b8ff" points="826.96,-493.33 819.04,-500.37 829.62,-499.81 826.96,-493.33"/>
</g>
<!-- Node26&#45;&gt;Node27 -->
<g id="edge40" class="edge">
<title>Node26&#45;&gt;Node27</title>
<path fill="none" stroke="#63b8ff" d="M747.15,-428.33C729.3,-415.78 704.2,-398.13 689.37,-387.7"/>
<polygon fill="#63b8ff" stroke="#63b8ff" points="745.53,-431.48 755.73,-434.37 749.56,-425.75 745.53,-431.48"/>
</g>
<!-- Node28 -->
<g id="node28" class="node">
<title>Node28</title>
<g id="a_node28"><a xlink:href="rpc__sessions_8h.html" target="_top" xlink:title=" ">
<polygon fill="white" stroke="#666666" points="750,-321.5 604,-321.5 604,-302.5 750,-302.5 750,-321.5"/>
<text text-anchor="middle" x="677" y="-309.5" font-family="Helvetica,sans-Serif" font-size="10.00">src/enclave/rpc_sessions.h</text>
</a>
</g>
</g>
<!-- Node27&#45;&gt;Node28 -->
<g id="edge41" class="edge">
<title>Node27&#45;&gt;Node28</title>
<path fill="none" stroke="#63b8ff" d="M677,-358.08C677,-346.13 677,-331.22 677,-321.91"/>
<polygon fill="#63b8ff" stroke="#63b8ff" points="673.5,-358.37 677,-368.37 680.5,-358.37 673.5,-358.37"/>
</g>
<!-- Node28&#45;&gt;Node13 -->
<g id="edge42" class="edge">
<title>Node28&#45;&gt;Node13</title>
<path fill="none" stroke="#63b8ff" d="M648.69,-297.87C619.68,-282.6 581.41,-256.28 601,-231 676.57,-133.51 1062.41,-86.1 1213.86,-71.02"/>
<polygon fill="#63b8ff" stroke="#63b8ff" points="647.19,-301.03 657.69,-302.42 650.35,-294.78 647.19,-301.03"/>
</g>
<!-- Node28&#45;&gt;Node15 -->
<g id="edge43" class="edge">
<title>Node28&#45;&gt;Node15</title>
<path fill="none" stroke="#63b8ff" d="M731.68,-300.49C797.08,-287.92 905.28,-267.13 965.7,-255.51"/>
<polygon fill="#63b8ff" stroke="#63b8ff" points="730.72,-297.11 721.56,-302.44 732.05,-303.98 730.72,-297.11"/>
</g>
<!-- Node28&#45;&gt;Node16 -->
<g id="edge44" class="edge">
<title>Node28&#45;&gt;Node16</title>
<path fill="none" stroke="#63b8ff" d="M651.62,-297.27C625.06,-281.17 589.8,-253.81 610,-231 632.64,-205.43 848.62,-190.23 957.66,-184.12"/>
<polygon fill="#63b8ff" stroke="#63b8ff" points="650.15,-300.46 660.55,-302.46 653.67,-294.41 650.15,-300.46"/>
</g>
<!-- Node29 -->
<g id="node29" class="node">
<title>Node29</title>
<g id="a_node29"><a xlink:href="quote__endorsements__client_8h.html" target="_top" xlink:title=" ">
<polygon fill="white" stroke="#666666" points="783,-261 619,-261 619,-231 783,-231 783,-261"/>
<text text-anchor="start" x="627" y="-249" font-family="Helvetica,sans-Serif" font-size="10.00">src/node/quote_endorsements</text>
<text text-anchor="middle" x="701" y="-238" font-family="Helvetica,sans-Serif" font-size="10.00">_client.h</text>
</a>
</g>
</g>
<!-- Node28&#45;&gt;Node29 -->
<g id="edge45" class="edge">
<title>Node28&#45;&gt;Node29</title>
<path fill="none" stroke="#63b8ff" d="M683.76,-292.98C687.51,-282.98 692.11,-270.71 695.61,-261.36"/>
<polygon fill="#63b8ff" stroke="#63b8ff" points="680.47,-291.78 680.24,-302.37 687.03,-294.23 680.47,-291.78"/>
</g>
<!-- Node30 -->
<g id="node30" class="node">
<title>Node30</title>
<g id="a_node30"><a xlink:href="resharing_8h.html" target="_top" xlink:title=" ">
<polygon fill="white" stroke="#666666" points="917,-255.5 801,-255.5 801,-236.5 917,-236.5 917,-255.5"/>
<text text-anchor="middle" x="859" y="-243.5" font-family="Helvetica,sans-Serif" font-size="10.00">src/node/resharing.h</text>
</a>
</g>
</g>
<!-- Node28&#45;&gt;Node30 -->
<g id="edge47" class="edge">
<title>Node28&#45;&gt;Node30</title>
<path fill="none" stroke="#63b8ff" d="M711.12,-299C747.06,-286.36 802.76,-266.78 834.55,-255.6"/>
<polygon fill="#63b8ff" stroke="#63b8ff" points="709.82,-295.75 701.55,-302.37 712.14,-302.35 709.82,-295.75"/>
</g>
<!-- Node29&#45;&gt;Node16 -->
<g id="edge46" class="edge">
<title>Node29&#45;&gt;Node16</title>
<path fill="none" stroke="#63b8ff" d="M780.82,-228.99C843.21,-216.47 927.49,-199.56 977.55,-189.52"/>
<polygon fill="#63b8ff" stroke="#63b8ff" points="780.12,-225.56 771.01,-230.95 781.5,-232.42 780.12,-225.56"/>
</g>
<!-- Node30&#45;&gt;Node16 -->
<g id="edge48" class="edge">
<title>Node30&#45;&gt;Node16</title>
<path fill="none" stroke="#63b8ff" d="M890.42,-232.51C922.24,-219.86 970.61,-200.63 998.37,-189.6"/>
<polygon fill="#63b8ff" stroke="#63b8ff" points="888.71,-229.42 880.71,-236.37 891.3,-235.93 888.71,-229.42"/>
</g>
<!-- Node31&#45;&gt;Node28 -->
<g id="edge51" class="edge">
<title>Node31&#45;&gt;Node28</title>
<path fill="none" stroke="#63b8ff" d="M558.23,-364.36C587.4,-351.75 631.43,-332.71 656.88,-321.7"/>
<polygon fill="#63b8ff" stroke="#63b8ff" points="556.75,-361.19 548.96,-368.37 559.53,-367.61 556.75,-361.19"/>
</g>
<!-- Node32&#45;&gt;Node11 -->
<g id="edge55" class="edge">
<title>Node32&#45;&gt;Node11</title>
<path fill="none" stroke="#63b8ff" d="M991.04,-431.32C1031.08,-418.7 1093.97,-398.87 1129.73,-387.6"/>
<polygon fill="#63b8ff" stroke="#63b8ff" points="989.86,-428.02 981.38,-434.37 991.97,-434.7 989.86,-428.02"/>
</g>
<!-- Node32&#45;&gt;Node13 -->
<g id="edge54" class="edge">
<title>Node32&#45;&gt;Node13</title>
<path fill="none" stroke="#63b8ff" d="M925.59,-430.16C886.93,-413.05 815.32,-382.67 752,-363 683.64,-341.76 640.87,-381.97 595,-327 567.65,-294.22 577.83,-271.27 592,-231 604.49,-195.51 613.56,-185.66 645,-165 738.18,-103.78 1074.59,-77.31 1213.92,-68.8"/>
<polygon fill="#63b8ff" stroke="#63b8ff" points="924.57,-433.53 935.13,-434.41 927.42,-427.14 924.57,-433.53"/>
</g>
</g>
</svg>
