<?xml version="1.0" encoding="UTF-8" standalone="no"?>
<!DOCTYPE svg PUBLIC "-//W3C//DTD SVG 1.1//EN"
 "http://www.w3.org/Graphics/SVG/1.1/DTD/svg11.dtd">
<!-- Generated by graphviz version 2.43.0 (0)
 -->
<!-- Title: src/ds/lru.h Pages: 1 -->
<svg width="956pt" height="159pt"
 viewBox="0.00 0.00 956.00 159.00" xmlns="http://www.w3.org/2000/svg" xmlns:xlink="http://www.w3.org/1999/xlink">
<g id="graph0" class="graph" transform="scale(1 1) rotate(0) translate(4 155)">
<title>src/ds/lru.h</title>
<!-- Node1 -->
<g id="node1" class="node">
<title>Node1</title>
<g id="a_node1"><a xlink:title=" ">
<polygon fill="#999999" stroke="#666666" points="550,-151 480,-151 480,-132 550,-132 550,-151"/>
<text text-anchor="middle" x="515" y="-139" font-family="Helvetica,sans-Serif" font-size="10.00">src/ds/lru.h</text>
</a>
</g>
</g>
<!-- Node2 -->
<g id="node2" class="node">
<title>Node2</title>
<g id="a_node2"><a xlink:href="external__executor__indexing_8h.html" target="_top" xlink:title=" ">
<polygon fill="white" stroke="#666666" points="246,-96 82,-96 82,-66 246,-66 246,-96"/>
<text text-anchor="start" x="90" y="-84" font-family="Helvetica,sans-Serif" font-size="10.00">src/apps/external_executor</text>
<text text-anchor="middle" x="164" y="-73" font-family="Helvetica,sans-Serif" font-size="10.00">/external_executor_indexing.h</text>
</a>
</g>
</g>
<!-- Node1&#45;&gt;Node2 -->
<g id="edge1" class="edge">
<title>Node1&#45;&gt;Node2</title>
<path fill="none" stroke="#63b8ff" d="M469.69,-132.95C413.26,-123.54 315.78,-107.3 246.07,-95.68"/>
<polygon fill="#63b8ff" stroke="#63b8ff" points="469.3,-136.43 479.74,-134.62 470.45,-129.53 469.3,-136.43"/>
</g>
<!-- Node5 -->
<g id="node5" class="node">
<title>Node5</title>
<g id="a_node5"><a xlink:href="cert__auth_8cpp.html" target="_top" xlink:title=" ">
<polygon fill="white" stroke="#666666" points="419.5,-96 264.5,-96 264.5,-66 419.5,-66 419.5,-96"/>
<text text-anchor="start" x="272.5" y="-84" font-family="Helvetica,sans-Serif" font-size="10.00">src/endpoints/authentication</text>
<text text-anchor="middle" x="342" y="-73" font-family="Helvetica,sans-Serif" font-size="10.00">/cert_auth.cpp</text>
</a>
</g>
</g>
<!-- Node1&#45;&gt;Node5 -->
<g id="edge4" class="edge">
<title>Node1&#45;&gt;Node5</title>
<path fill="none" stroke="#63b8ff" d="M480.12,-128.71C452.25,-119.28 413.1,-106.04 383.59,-96.06"/>
<polygon fill="#63b8ff" stroke="#63b8ff" points="479.25,-132.11 489.84,-131.99 481.49,-125.47 479.25,-132.11"/>
</g>
<!-- Node6 -->
<g id="node6" class="node">
<title>Node6</title>
<g id="a_node6"><a xlink:href="cose__auth_8cpp.html" target="_top" xlink:title=" ">
<polygon fill="white" stroke="#666666" points="592.5,-96 437.5,-96 437.5,-66 592.5,-66 592.5,-96"/>
<text text-anchor="start" x="445.5" y="-84" font-family="Helvetica,sans-Serif" font-size="10.00">src/endpoints/authentication</text>
<text text-anchor="middle" x="515" y="-73" font-family="Helvetica,sans-Serif" font-size="10.00">/cose_auth.cpp</text>
</a>
</g>
</g>
<!-- Node1&#45;&gt;Node6 -->
<g id="edge5" class="edge">
<title>Node1&#45;&gt;Node6</title>
<path fill="none" stroke="#63b8ff" d="M515,-121.65C515,-113.36 515,-103.78 515,-96.11"/>
<polygon fill="#63b8ff" stroke="#63b8ff" points="511.5,-121.87 515,-131.87 518.5,-121.87 511.5,-121.87"/>
</g>
<!-- Node7 -->
<g id="node7" class="node">
<title>Node7</title>
<g id="a_node7"><a xlink:href="sig__auth_8cpp.html" target="_top" xlink:title=" ">
<polygon fill="white" stroke="#666666" points="765.5,-96 610.5,-96 610.5,-66 765.5,-66 765.5,-96"/>
<text text-anchor="start" x="618.5" y="-84" font-family="Helvetica,sans-Serif" font-size="10.00">src/endpoints/authentication</text>
<text text-anchor="middle" x="688" y="-73" font-family="Helvetica,sans-Serif" font-size="10.00">/sig_auth.cpp</text>
</a>
</g>
</g>
<!-- Node1&#45;&gt;Node7 -->
<g id="edge6" class="edge">
<title>Node1&#45;&gt;Node7</title>
<path fill="none" stroke="#63b8ff" d="M549.88,-128.71C577.75,-119.28 616.9,-106.04 646.41,-96.06"/>
<polygon fill="#63b8ff" stroke="#63b8ff" points="548.51,-125.47 540.16,-131.99 550.75,-132.11 548.51,-125.47"/>
</g>
<!-- Node8 -->
<g id="node8" class="node">
<title>Node8</title>
<g id="a_node8"><a xlink:href="seqnos__by__key__bucketed_8cpp.html" target="_top" xlink:title=" ">
<polygon fill="white" stroke="#666666" points="948,-96 784,-96 784,-66 948,-66 948,-96"/>
<text text-anchor="start" x="792" y="-84" font-family="Helvetica,sans-Serif" font-size="10.00">src/indexing/strategies</text>
<text text-anchor="middle" x="866" y="-73" font-family="Helvetica,sans-Serif" font-size="10.00">/seqnos_by_key_bucketed.cpp</text>
</a>
</g>
</g>
<!-- Node1&#45;&gt;Node8 -->
<g id="edge7" class="edge">
<title>Node1&#45;&gt;Node8</title>
<path fill="none" stroke="#63b8ff" d="M560.31,-132.95C616.74,-123.54 714.22,-107.3 783.93,-95.68"/>
<polygon fill="#63b8ff" stroke="#63b8ff" points="559.55,-129.53 550.26,-134.62 560.7,-136.43 559.55,-129.53"/>
</g>
<!-- Node3 -->
<g id="node3" class="node">
<title>Node3</title>
<g id="a_node3"><a xlink:href="external__executor_8cpp.html" target="_top" xlink:title=" ">
<polygon fill="white" stroke="#666666" points="148,-30 0,-30 0,0 148,0 148,-30"/>
<text text-anchor="start" x="8" y="-18" font-family="Helvetica,sans-Serif" font-size="10.00">src/apps/external_executor</text>
<text text-anchor="middle" x="74" y="-7" font-family="Helvetica,sans-Serif" font-size="10.00">/external_executor.cpp</text>
</a>
</g>
</g>
<!-- Node2&#45;&gt;Node3 -->
<g id="edge2" class="edge">
<title>Node2&#45;&gt;Node3</title>
<path fill="none" stroke="#63b8ff" d="M135.53,-59.75C121.99,-50.13 106.14,-38.86 93.92,-30.16"/>
<polygon fill="#63b8ff" stroke="#63b8ff" points="133.85,-62.85 144.03,-65.8 137.9,-57.15 133.85,-62.85"/>
</g>
<!-- Node4 -->
<g id="node4" class="node">
<title>Node4</title>
<g id="a_node4"><a xlink:href="external__executor__indexing_8cpp.html" target="_top" xlink:title=" ">
<polygon fill="white" stroke="#666666" points="341.5,-30 166.5,-30 166.5,0 341.5,0 341.5,-30"/>
<text text-anchor="start" x="174.5" y="-18" font-family="Helvetica,sans-Serif" font-size="10.00">src/apps/external_executor</text>
<text text-anchor="middle" x="254" y="-7" font-family="Helvetica,sans-Serif" font-size="10.00">/external_executor_indexing.cpp</text>
</a>
</g>
</g>
<!-- Node2&#45;&gt;Node4 -->
<g id="edge3" class="edge">
<title>Node2&#45;&gt;Node4</title>
<path fill="none" stroke="#63b8ff" d="M192.47,-59.75C206.01,-50.13 221.86,-38.86 234.08,-30.16"/>
<polygon fill="#63b8ff" stroke="#63b8ff" points="190.1,-57.15 183.97,-65.8 194.15,-62.85 190.1,-57.15"/>
</g>
</g>
</svg>
